<svg width="177" height="42" viewBox="0 0 177 42" xmlns="http://www.w3.org/2000/svg">
            <path fillRule="evenodd" clipRule="evenodd" d="M0.0625 21C12.2982 21 19.3125 13.9856 19.3125 1.75C19.3125 13.9856 26.3269 21 38.5625 21C26.3269 21 19.3125 28.0143 19.3125 40.25C19.3125 28.0143 12.2982 21 0.0625 21Z" fill="black" />
            <path d="M46.1663 29.6705L52.8863 11.2955H56.6663L63.3863 29.6705H59.8163L58.3463 25.418H51.18L49.6838 29.6705H46.1663ZM52.0988 22.793H57.4275L54.75 15.1542L52.0988 22.793Z" fill="black" />
            <path d="M70.1255 29.9855C68.7955 29.9855 67.623 29.6967 66.608 29.1192C65.593 28.5417 64.788 27.7367 64.193 26.7042C63.6155 25.6717 63.3268 24.4905 63.3268 23.1605C63.3268 21.8305 63.6155 20.6492 64.193 19.6167C64.788 18.5842 65.593 17.7792 66.608 17.2017C67.623 16.6242 68.7955 16.3355 70.1255 16.3355C71.788 16.3355 73.188 16.773 74.3255 17.648C75.463 18.5055 76.1893 19.6955 76.5043 21.218H72.9605C72.7855 20.588 72.4355 20.098 71.9105 19.748C71.403 19.3805 70.7993 19.1967 70.0993 19.1967C69.1718 19.1967 68.3843 19.5467 67.7368 20.2467C67.0893 20.9467 66.7655 21.918 66.7655 23.1605C66.7655 24.403 67.0893 25.3742 67.7368 26.0742C68.3843 26.7742 69.1718 27.1242 70.0993 27.1242C70.7993 27.1242 71.403 26.9492 71.9105 26.5992C72.4355 26.2492 72.7855 25.7505 72.9605 25.103H76.5043C76.1893 26.573 75.463 27.7542 74.3255 28.6467C73.188 29.5392 71.788 29.9855 70.1255 29.9855Z" fill="black" />
            <path d="M78.174 29.6705V16.6505H81.1403L81.429 18.4092C81.849 17.7792 82.4003 17.2805 83.0828 16.913C83.7828 16.528 84.5878 16.3355 85.4978 16.3355C87.5103 16.3355 88.9365 17.1142 89.7765 18.6717C90.249 17.9542 90.879 17.3855 91.6665 16.9655C92.4715 16.5455 93.3465 16.3355 94.2915 16.3355C95.989 16.3355 97.2928 16.843 98.2028 17.858C99.1128 18.873 99.5678 20.3605 99.5678 22.3205V29.6705H96.2078V22.6355C96.2078 21.5155 95.989 20.658 95.5515 20.063C95.1315 19.468 94.4753 19.1705 93.5828 19.1705C92.6728 19.1705 91.9378 19.503 91.3778 20.168C90.8353 20.833 90.564 21.7605 90.564 22.9505V29.6705H87.204V22.6355C87.204 21.5155 86.9853 20.658 86.5478 20.063C86.1103 19.468 85.4365 19.1705 84.5265 19.1705C83.634 19.1705 82.9078 19.503 82.3478 20.168C81.8053 20.833 81.534 21.7605 81.534 22.9505V29.6705H78.174Z" fill="black" />
            <path d="M107.772 29.9855C106.459 29.9855 105.295 29.7055 104.28 29.1455C103.265 28.5855 102.469 27.798 101.892 26.783C101.314 25.768 101.025 24.5955 101.025 23.2655C101.025 21.918 101.305 20.7192 101.865 19.6692C102.443 18.6192 103.23 17.8055 104.228 17.228C105.243 16.633 106.433 16.3355 107.798 16.3355C109.075 16.3355 110.204 16.6155 111.184 17.1755C112.164 17.7355 112.925 18.5055 113.468 19.4855C114.028 20.448 114.308 21.5242 114.308 22.7142C114.308 22.9067 114.299 23.108 114.282 23.318C114.282 23.528 114.273 23.7467 114.255 23.9742H104.359C104.429 24.9892 104.779 25.7855 105.409 26.363C106.057 26.9405 106.835 27.2292 107.745 27.2292C108.428 27.2292 108.997 27.0805 109.452 26.783C109.924 26.468 110.274 26.0655 110.502 25.5755H113.914C113.669 26.398 113.258 27.1505 112.68 27.833C112.12 28.498 111.42 29.023 110.58 29.408C109.758 29.793 108.822 29.9855 107.772 29.9855ZM107.798 19.0655C106.975 19.0655 106.249 19.3017 105.619 19.7742C104.989 20.2292 104.587 20.9292 104.412 21.8742H110.895C110.843 21.0167 110.528 20.3342 109.95 19.8267C109.373 19.3192 108.655 19.0655 107.798 19.0655Z" fill="black" />
            <path d="M129.164 29.9855C127.309 29.9855 125.716 29.5917 124.386 28.8042C123.056 27.9992 122.032 26.888 121.315 25.4705C120.597 24.0355 120.239 22.3817 120.239 20.5092C120.239 18.6367 120.597 16.983 121.315 15.548C122.032 14.113 123.056 12.993 124.386 12.188C125.716 11.383 127.309 10.9805 129.164 10.9805C131.369 10.9805 133.171 11.5317 134.571 12.6342C135.989 13.7192 136.872 15.2505 137.222 17.228H133.521C133.294 16.2305 132.804 15.4517 132.051 14.8917C131.316 14.3142 130.336 14.0255 129.111 14.0255C127.414 14.0255 126.084 14.603 125.121 15.758C124.159 16.913 123.677 18.4967 123.677 20.5092C123.677 22.5217 124.159 24.1055 125.121 25.2605C126.084 26.398 127.414 26.9667 129.111 26.9667C130.336 26.9667 131.316 26.7042 132.051 26.1792C132.804 25.6367 133.294 24.893 133.521 23.948H137.222C136.872 25.838 135.989 27.3167 134.571 28.3842C133.171 29.4517 131.369 29.9855 129.164 29.9855Z" fill="black" />
            <path d="M145.053 29.9855C143.793 29.9855 142.655 29.6967 141.64 29.1192C140.643 28.5417 139.847 27.7455 139.252 26.7305C138.674 25.698 138.385 24.508 138.385 23.1605C138.385 21.813 138.683 20.6317 139.278 19.6167C139.873 18.5842 140.669 17.7792 141.667 17.2017C142.682 16.6242 143.819 16.3355 145.079 16.3355C146.322 16.3355 147.442 16.6242 148.439 17.2017C149.454 17.7792 150.25 18.5842 150.828 19.6167C151.423 20.6317 151.72 21.813 151.72 23.1605C151.72 24.508 151.423 25.698 150.828 26.7305C150.25 27.7455 149.454 28.5417 148.439 29.1192C147.424 29.6967 146.295 29.9855 145.053 29.9855ZM145.053 27.0717C145.928 27.0717 146.689 26.748 147.337 26.1005C147.984 25.4355 148.308 24.4555 148.308 23.1605C148.308 21.8655 147.984 20.8942 147.337 20.2467C146.689 19.5817 145.937 19.2492 145.079 19.2492C144.187 19.2492 143.417 19.5817 142.769 20.2467C142.139 20.8942 141.824 21.8655 141.824 23.1605C141.824 24.4555 142.139 25.4355 142.769 26.1005C143.417 26.748 144.178 27.0717 145.053 27.0717Z" fill="black" />
            <path d="M153.412 29.6705V16.6505H156.405L156.72 19.0917C157.192 18.2517 157.831 17.5867 158.636 17.0967C159.458 16.5892 160.421 16.3355 161.523 16.3355V19.8792H160.578C159.843 19.8792 159.187 19.993 158.61 20.2205C158.032 20.448 157.577 20.8417 157.245 21.4017C156.93 21.9617 156.772 22.7405 156.772 23.738V29.6705H153.412Z" fill="black" />
            <path d="M162.507 35.4455V16.6505H165.5L165.867 18.5142C166.287 17.9367 166.839 17.4292 167.521 16.9917C168.221 16.5542 169.122 16.3355 170.225 16.3355C171.45 16.3355 172.544 16.633 173.506 17.228C174.469 17.823 175.23 18.6367 175.79 19.6692C176.35 20.7017 176.63 21.8742 176.63 23.1867C176.63 24.4992 176.35 25.6717 175.79 26.7042C175.23 27.7192 174.469 28.5242 173.506 29.1192C172.544 29.6967 171.45 29.9855 170.225 29.9855C169.245 29.9855 168.387 29.8017 167.652 29.4342C166.917 29.0667 166.322 28.5505 165.867 27.8855V35.4455H162.507ZM169.516 27.0455C170.584 27.0455 171.467 26.6867 172.167 25.9692C172.867 25.2517 173.217 24.3242 173.217 23.1867C173.217 22.0492 172.867 21.113 172.167 20.378C171.467 19.643 170.584 19.2755 169.516 19.2755C168.431 19.2755 167.539 19.643 166.839 20.378C166.156 21.0955 165.815 22.023 165.815 23.1605C165.815 24.298 166.156 25.2342 166.839 25.9692C167.539 26.6867 168.431 27.0455 169.516 27.0455Z" fill="black" />
</svg>