<svg width="149" height="42" viewBox="0 0 149 42" fill="none" xmlns="http://www.w3.org/2000/svg">
<path fill-rule="evenodd" clip-rule="evenodd" d="M19.375 40.25C30.0065 40.25 38.625 31.6315 38.625 21C38.625 10.3685 30.0065 1.75 19.375 1.75C8.7435 1.75 0.125 10.3685 0.125 21C0.125 31.6315 8.7435 40.25 19.375 40.25ZM25.3803 10.7175C25.6726 9.67913 24.665 9.06513 23.7448 9.72076L10.8984 18.8725C9.90035 19.5835 10.0573 21 11.1342 21H14.517V20.9738H21.1099L15.7379 22.8693L13.3697 31.2826C13.0774 32.3209 14.0849 32.9349 15.0053 32.2792L27.8516 23.1276C28.8497 22.4166 28.6926 21 27.6158 21H22.4859L25.3803 10.7175Z" fill="black"/>
<path d="M48.5825 29.6705V26.6255H50.9975V14.3405H48.5825V11.2955H58.0325C59.1525 11.2955 60.1238 11.488 60.9463 11.873C61.7863 12.2405 62.4338 12.7742 62.8888 13.4742C63.3613 14.1567 63.5975 14.9792 63.5975 15.9417V16.2042C63.5975 17.0442 63.44 17.7355 63.125 18.278C62.81 18.803 62.4338 19.2142 61.9963 19.5117C61.5763 19.7917 61.1738 19.993 60.7888 20.1155V20.588C61.1738 20.693 61.5938 20.8942 62.0488 21.1917C62.5038 21.4717 62.8888 21.883 63.2038 22.4255C63.5363 22.968 63.7025 23.6767 63.7025 24.5517V24.8142C63.7025 25.8292 63.4663 26.7042 62.9938 27.4392C62.5213 28.1567 61.865 28.708 61.025 29.093C60.2025 29.478 59.24 29.6705 58.1375 29.6705H48.5825ZM54.4625 26.5205H57.7175C58.47 26.5205 59.0738 26.3367 59.5288 25.9692C60.0013 25.6017 60.2375 25.0767 60.2375 24.3942V24.1317C60.2375 23.4492 60.01 22.9242 59.555 22.5567C59.1 22.1892 58.4875 22.0055 57.7175 22.0055H54.4625V26.5205ZM54.4625 18.8555H57.665C58.3825 18.8555 58.9688 18.6717 59.4238 18.3042C59.8963 17.9367 60.1325 17.4292 60.1325 16.7817V16.5192C60.1325 15.8542 59.905 15.3467 59.45 14.9967C58.995 14.6292 58.4 14.4455 57.665 14.4455H54.4625V18.8555Z" fill="black"/>
<path d="M71.5267 30.038C70.2317 30.038 69.0679 29.7755 68.0354 29.2505C67.0029 28.7255 66.1892 27.9642 65.5942 26.9667C64.9992 25.9692 64.7017 24.7705 64.7017 23.3705V22.9505C64.7017 21.5505 64.9992 20.3517 65.5942 19.3542C66.1892 18.3567 67.0029 17.5955 68.0354 17.0705C69.0679 16.5455 70.2317 16.283 71.5267 16.283C72.8217 16.283 73.9854 16.5455 75.0179 17.0705C76.0504 17.5955 76.8642 18.3567 77.4592 19.3542C78.0542 20.3517 78.3517 21.5505 78.3517 22.9505V23.3705C78.3517 24.7705 78.0542 25.9692 77.4592 26.9667C76.8642 27.9642 76.0504 28.7255 75.0179 29.2505C73.9854 29.7755 72.8217 30.038 71.5267 30.038ZM71.5267 27.098C72.5417 27.098 73.3817 26.7742 74.0467 26.1267C74.7117 25.4617 75.0442 24.5167 75.0442 23.2917V23.0292C75.0442 21.8042 74.7117 20.868 74.0467 20.2205C73.3992 19.5555 72.5592 19.223 71.5267 19.223C70.5117 19.223 69.6717 19.5555 69.0067 20.2205C68.3417 20.868 68.0092 21.8042 68.0092 23.0292V23.2917C68.0092 24.5167 68.3417 25.4617 69.0067 26.1267C69.6717 26.7742 70.5117 27.098 71.5267 27.098Z" fill="black"/>
<path d="M80.0921 29.6705V11.2955H83.3997V29.6705H80.0921Z" fill="black"/>
<path d="M90.7398 29.6705C89.8823 29.6705 89.1823 29.408 88.6398 28.883C88.1148 28.3405 87.8523 27.623 87.8523 26.7305V19.3805H84.5973V16.6505H87.8523V12.608H91.1598V16.6505H94.7298V19.3805H91.1598V26.153C91.1598 26.678 91.4048 26.9405 91.8948 26.9405H94.4148V29.6705H90.7398Z" fill="black"/>
<path d="M101.819 30.038C100.121 30.038 98.73 29.6705 97.645 28.9355C96.56 28.2005 95.9037 27.1505 95.6762 25.7855L98.7212 24.998C98.8437 25.6105 99.045 26.0917 99.325 26.4417C99.6225 26.7917 99.9812 27.0455 100.401 27.203C100.839 27.343 101.311 27.413 101.819 27.413C102.589 27.413 103.157 27.2817 103.525 27.0192C103.892 26.7392 104.076 26.398 104.076 25.9955C104.076 25.593 103.901 25.2867 103.551 25.0767C103.201 24.8492 102.641 24.6655 101.871 24.5255L101.136 24.3942C100.226 24.2192 99.395 23.983 98.6425 23.6855C97.89 23.3705 97.2862 22.9417 96.8312 22.3992C96.3762 21.8567 96.1487 21.1567 96.1487 20.2992C96.1487 19.0042 96.6212 18.0155 97.5662 17.333C98.5112 16.633 99.7537 16.283 101.294 16.283C102.746 16.283 103.954 16.6067 104.916 17.2542C105.879 17.9017 106.509 18.7505 106.806 19.8005L103.735 20.7455C103.595 20.0805 103.306 19.608 102.869 19.328C102.449 19.048 101.924 18.908 101.294 18.908C100.664 18.908 100.182 19.0217 99.85 19.2492C99.5175 19.4592 99.3512 19.7567 99.3512 20.1417C99.3512 20.5617 99.5262 20.8767 99.8762 21.0867C100.226 21.2792 100.699 21.428 101.294 21.533L102.029 21.6642C103.009 21.8392 103.892 22.0755 104.68 22.373C105.485 22.653 106.115 23.0642 106.57 23.6067C107.042 24.1317 107.279 24.8492 107.279 25.7592C107.279 27.1242 106.78 28.183 105.782 28.9355C104.802 29.6705 103.481 30.038 101.819 30.038Z" fill="black"/>
<path d="M108.865 29.6705V11.2955H112.172V18.2517H112.645C112.785 17.9717 113.003 17.6917 113.301 17.4117C113.598 17.1317 113.992 16.9042 114.482 16.7292C114.99 16.5367 115.628 16.4405 116.398 16.4405C117.413 16.4405 118.297 16.6767 119.05 17.1492C119.82 17.6042 120.415 18.243 120.835 19.0655C121.255 19.8705 121.465 20.8155 121.465 21.9005V29.6705H118.157V22.163C118.157 21.183 117.912 20.448 117.422 19.958C116.95 19.468 116.267 19.223 115.375 19.223C114.36 19.223 113.572 19.5642 113.012 20.2467C112.452 20.9117 112.172 21.848 112.172 23.0555V29.6705H108.865Z" fill="black"/>
<path d="M123.728 29.6705V16.6505H127.035V29.6705H123.728ZM125.381 15.128C124.786 15.128 124.279 14.9355 123.859 14.5505C123.456 14.1655 123.255 13.658 123.255 13.028C123.255 12.398 123.456 11.8905 123.859 11.5055C124.279 11.1205 124.786 10.928 125.381 10.928C125.994 10.928 126.501 11.1205 126.904 11.5055C127.306 11.8905 127.508 12.398 127.508 13.028C127.508 13.658 127.306 14.1655 126.904 14.5505C126.501 14.9355 125.994 15.128 125.381 15.128Z" fill="black"/>
<path d="M131.54 29.6705V19.3805H128.233V16.6505H131.54V14.2355C131.54 13.343 131.803 12.6342 132.328 12.1092C132.87 11.5667 133.57 11.2955 134.428 11.2955H137.84V14.0255H135.583C135.093 14.0255 134.848 14.288 134.848 14.813V16.6505H138.26V19.3805H134.848V29.6705H131.54Z" fill="black"/>
<path d="M144.24 29.6705C143.382 29.6705 142.682 29.408 142.14 28.883C141.615 28.3405 141.352 27.623 141.352 26.7305V19.3805H138.097V16.6505H141.352V12.608H144.66V16.6505H148.23V19.3805H144.66V26.153C144.66 26.678 144.905 26.9405 145.395 26.9405H147.915V29.6705H144.24Z" fill="black"/>
</svg>
