        <svg width="167" height="42" viewBox="0 0 167 42" xmlns="http://www.w3.org/2000/svg">
            <path d="M19.57 3.5C16.385 3.5 13.8125 6.04123 13.8125 9.1875C13.8125 12.3096 16.385 14.8508 19.5455 14.875C18.7615 14.8508 18.149 14.2216 18.149 13.4471C18.149 12.6726 18.786 12.0192 19.5945 12.0192C23.0245 12.0192 30.644 12.0192 34.0005 12.0192C36.377 12.0192 38.3125 10.1072 38.3125 7.7596C38.3125 5.41197 36.377 3.5 34.0005 3.5L19.57 3.5Z" fill="black" />
            <path opacity="0.9" d="M12.57 14.875C9.38497 14.875 6.81247 17.4162 6.81247 20.5625C6.81247 23.6846 9.38497 26.2258 12.5455 26.25C11.7615 26.2258 11.149 25.5966 11.149 24.8221C11.149 24.0476 11.786 23.3942 12.5945 23.3942C16.0245 23.3942 23.644 23.3942 27.0005 23.3942C29.377 23.3942 31.3125 21.4822 31.3125 19.1346C31.3125 16.787 29.377 14.875 27.0005 14.875L12.57 14.875Z" fill="black" />
            <path opacity="0.8" d="M7.73122 26.25C4.31872 26.25 1.56247 28.9867 1.56247 32.375C1.56247 35.7373 4.31872 38.4739 7.70495 38.5C6.86496 38.4739 6.20872 37.7963 6.20872 36.9622C6.20872 36.1282 6.89123 35.4245 7.75749 35.4245C11.4325 35.4245 19.5962 35.4245 23.1925 35.4245C25.7387 35.4245 27.8125 33.3654 27.8125 30.8373C27.8125 28.309 25.7387 26.25 23.1925 26.25L7.73122 26.25Z" fill="black" />
            <path d="M47.045 29.6705V11.2955H58.8575V14.4455H50.51V18.8292H58.1225V21.9792H50.51V26.5205H59.015V29.6705H47.045Z" fill="black" />
            <path d="M60.3724 34.9205V16.6505H63.6274V18.2255H64.0999C64.3974 17.718 64.8611 17.2717 65.4911 16.8867C66.1211 16.4842 67.0224 16.283 68.1949 16.283C69.2449 16.283 70.2161 16.5455 71.1086 17.0705C72.0011 17.578 72.7186 18.3305 73.2611 19.328C73.8036 20.3255 74.0749 21.533 74.0749 22.9505V23.3705C74.0749 24.788 73.8036 25.9955 73.2611 26.993C72.7186 27.9905 72.0011 28.7517 71.1086 29.2767C70.2161 29.7842 69.2449 30.038 68.1949 30.038C67.4074 30.038 66.7424 29.9417 66.1999 29.7492C65.6749 29.5742 65.2461 29.3467 64.9136 29.0667C64.5986 28.7692 64.3449 28.4717 64.1524 28.1742H63.6799V34.9205H60.3724ZM67.1974 27.1505C68.2299 27.1505 69.0786 26.8267 69.7436 26.1792C70.4261 25.5142 70.7674 24.5517 70.7674 23.2917V23.0292C70.7674 21.7692 70.4261 20.8155 69.7436 20.168C69.0611 19.503 68.2124 19.1705 67.1974 19.1705C66.1824 19.1705 65.3336 19.503 64.6511 20.168C63.9686 20.8155 63.6274 21.7692 63.6274 23.0292V23.2917C63.6274 24.5517 63.9686 25.5142 64.6511 26.1792C65.3336 26.8267 66.1824 27.1505 67.1974 27.1505Z" fill="black" />
            <path d="M75.7994 29.6705V16.6505H79.1069V29.6705H75.7994ZM77.4531 15.128C76.8581 15.128 76.3506 14.9355 75.9306 14.5505C75.5281 14.1655 75.3269 13.658 75.3269 13.028C75.3269 12.398 75.5281 11.8905 75.9306 11.5055C76.3506 11.1205 76.8581 10.928 77.4531 10.928C78.0656 10.928 78.5731 11.1205 78.9756 11.5055C79.3781 11.8905 79.5794 12.398 79.5794 13.028C79.5794 13.658 79.3781 14.1655 78.9756 14.5505C78.5731 14.9355 78.0656 15.128 77.4531 15.128Z" fill="black" />
            <path d="M87.5758 30.038C86.3158 30.038 85.1695 29.7755 84.137 29.2505C83.122 28.7255 82.317 27.9642 81.722 26.9667C81.127 25.9692 80.8295 24.7617 80.8295 23.3442V22.9767C80.8295 21.5592 81.127 20.3517 81.722 19.3542C82.317 18.3567 83.122 17.5955 84.137 17.0705C85.1695 16.5455 86.3158 16.283 87.5758 16.283C88.8183 16.283 89.8858 16.5017 90.7783 16.9392C91.6708 17.3767 92.3883 17.9805 92.9308 18.7505C93.4908 19.503 93.8583 20.3605 94.0333 21.323L90.8308 22.0055C90.7608 21.4805 90.6033 21.008 90.3583 20.588C90.1133 20.168 89.7633 19.8355 89.3083 19.5905C88.8708 19.3455 88.3195 19.223 87.6545 19.223C86.9895 19.223 86.3858 19.3717 85.8433 19.6692C85.3183 19.9492 84.8983 20.378 84.5833 20.9555C84.2858 21.5155 84.137 22.2067 84.137 23.0292V23.2917C84.137 24.1142 84.2858 24.8142 84.5833 25.3917C84.8983 25.9517 85.3183 26.3805 85.8433 26.678C86.3858 26.958 86.9895 27.098 87.6545 27.098C88.652 27.098 89.4045 26.8442 89.912 26.3367C90.437 25.8117 90.7695 25.1292 90.9095 24.2892L94.112 25.0505C93.8845 25.978 93.4908 26.8267 92.9308 27.5967C92.3883 28.3492 91.6708 28.9442 90.7783 29.3817C89.8858 29.8192 88.8183 30.038 87.5758 30.038Z" fill="black" />
            <path d="M100.489 29.8805C99.4741 29.8805 98.5816 29.653 97.8116 29.198C97.0591 28.7255 96.4729 28.078 96.0529 27.2555C95.6329 26.433 95.4229 25.488 95.4229 24.4205V16.6505H98.7304V24.158C98.7304 25.138 98.9666 25.873 99.4391 26.363C99.9291 26.853 100.62 27.098 101.513 27.098C102.528 27.098 103.315 26.7655 103.875 26.1005C104.435 25.418 104.715 24.473 104.715 23.2655V16.6505H108.023V29.6705H104.768V27.9642H104.295C104.085 28.4017 103.692 28.8305 103.114 29.2505C102.537 29.6705 101.662 29.8805 100.489 29.8805Z" fill="black" />
            <path d="M110.391 29.6705V16.6505H113.646V18.1205H114.118C114.311 17.5955 114.626 17.2105 115.063 16.9655C115.518 16.7205 116.043 16.598 116.638 16.598H118.213V19.538H116.586C115.746 19.538 115.055 19.7655 114.512 20.2205C113.97 20.658 113.698 21.3405 113.698 22.268V29.6705H110.391Z" fill="black" />
            <path d="M119.486 29.6705V16.6505H122.794V29.6705H119.486ZM121.14 15.128C120.545 15.128 120.037 14.9355 119.617 14.5505C119.215 14.1655 119.014 13.658 119.014 13.028C119.014 12.398 119.215 11.8905 119.617 11.5055C120.037 11.1205 120.545 10.928 121.14 10.928C121.752 10.928 122.26 11.1205 122.662 11.5055C123.065 11.8905 123.266 12.398 123.266 13.028C123.266 13.658 123.065 14.1655 122.662 14.5505C122.26 14.9355 121.752 15.128 121.14 15.128Z" fill="black" />
            <path d="M131.341 30.038C130.046 30.038 128.883 29.7755 127.85 29.2505C126.818 28.7255 126.004 27.9642 125.409 26.9667C124.814 25.9692 124.516 24.7705 124.516 23.3705V22.9505C124.516 21.5505 124.814 20.3517 125.409 19.3542C126.004 18.3567 126.818 17.5955 127.85 17.0705C128.883 16.5455 130.046 16.283 131.341 16.283C132.636 16.283 133.8 16.5455 134.833 17.0705C135.865 17.5955 136.679 18.3567 137.274 19.3542C137.869 20.3517 138.166 21.5505 138.166 22.9505V23.3705C138.166 24.7705 137.869 25.9692 137.274 26.9667C136.679 27.9642 135.865 28.7255 134.833 29.2505C133.8 29.7755 132.636 30.038 131.341 30.038ZM131.341 27.098C132.356 27.098 133.196 26.7742 133.861 26.1267C134.526 25.4617 134.859 24.5167 134.859 23.2917V23.0292C134.859 21.8042 134.526 20.868 133.861 20.2205C133.214 19.5555 132.374 19.223 131.341 19.223C130.326 19.223 129.486 19.5555 128.821 20.2205C128.156 20.868 127.824 21.8042 127.824 23.0292V23.2917C127.824 24.5167 128.156 25.4617 128.821 26.1267C129.486 26.7742 130.326 27.098 131.341 27.098Z" fill="black" />
            <path d="M144.868 29.8805C143.853 29.8805 142.961 29.653 142.191 29.198C141.438 28.7255 140.852 28.078 140.432 27.2555C140.012 26.433 139.802 25.488 139.802 24.4205V16.6505H143.109V24.158C143.109 25.138 143.346 25.873 143.818 26.363C144.308 26.853 144.999 27.098 145.892 27.098C146.907 27.098 147.694 26.7655 148.254 26.1005C148.814 25.418 149.094 24.473 149.094 23.2655V16.6505H152.402V29.6705H149.147V27.9642H148.674C148.464 28.4017 148.071 28.8305 147.493 29.2505C146.916 29.6705 146.041 29.8805 144.868 29.8805Z" fill="black" />
            <path d="M160.177 30.038C158.48 30.038 157.089 29.6705 156.004 28.9355C154.919 28.2005 154.262 27.1505 154.035 25.7855L157.08 24.998C157.202 25.6105 157.404 26.0917 157.684 26.4417C157.981 26.7917 158.34 27.0455 158.76 27.203C159.197 27.343 159.67 27.413 160.177 27.413C160.947 27.413 161.516 27.2817 161.884 27.0192C162.251 26.7392 162.435 26.398 162.435 25.9955C162.435 25.593 162.26 25.2867 161.91 25.0767C161.56 24.8492 161 24.6655 160.23 24.5255L159.495 24.3942C158.585 24.2192 157.754 23.983 157.001 23.6855C156.249 23.3705 155.645 22.9417 155.19 22.3992C154.735 21.8567 154.507 21.1567 154.507 20.2992C154.507 19.0042 154.98 18.0155 155.925 17.333C156.87 16.633 158.112 16.283 159.652 16.283C161.105 16.283 162.312 16.6067 163.275 17.2542C164.237 17.9017 164.867 18.7505 165.165 19.8005L162.094 20.7455C161.954 20.0805 161.665 19.608 161.227 19.328C160.807 19.048 160.282 18.908 159.652 18.908C159.022 18.908 158.541 19.0217 158.209 19.2492C157.876 19.4592 157.71 19.7567 157.71 20.1417C157.71 20.5617 157.885 20.8767 158.235 21.0867C158.585 21.2792 159.057 21.428 159.652 21.533L160.387 21.6642C161.367 21.8392 162.251 22.0755 163.039 22.373C163.844 22.653 164.474 23.0642 164.929 23.6067C165.401 24.1317 165.637 24.8492 165.637 25.7592C165.637 27.1242 165.139 28.183 164.141 28.9355C163.161 29.6705 161.84 30.038 160.177 30.038Z" fill="black" />
        </svg>