        <svg width="174" height="42" viewBox="0 0 174 42" xmlns="http://www.w3.org/2000/svg">
            <path opacity="0.8" d="M31.7682 9.76785C31.39 9.38965 31.0119 9.01146 30.6337 8.63327C29.4991 7.42305 28.2889 6.21284 26.7761 5.45645C25.0364 4.54879 23.1455 4.7757 21.2545 4.7757C18.3802 4.7757 11.1946 4.7757 6.9588 4.7757L9.83307 8.63327C15.0521 8.63327 23.2211 8.63327 27.003 8.63327C28.5914 8.63327 29.9529 8.93582 31.2388 9.76785C31.4657 9.84348 31.6926 9.84348 31.7682 9.76785Z" fill="black" />
            <path opacity="0.9" d="M34.945 15.9702C34.5668 15.592 34.1886 15.2138 33.8105 14.8357C32.6759 13.6254 31.4657 12.4152 29.9529 11.6588C28.2132 10.7512 26.3222 10.9781 24.4313 10.9781C21.9352 10.9781 15.9598 10.9781 11.724 10.9781L14.5983 14.8357C19.7417 14.8357 26.7761 14.8357 30.2554 14.8357C31.8439 14.8357 33.2054 15.1382 34.4912 15.9702C34.6425 16.0459 34.7938 16.0459 34.945 15.9702Z" fill="black" />
            <path d="M38.5 22.021C38.1218 21.6428 37.7436 21.2646 37.3654 20.8864C36.2309 19.6762 35.0207 18.466 33.5079 17.7096C31.7682 16.802 29.8772 17.0289 27.9863 17.0289C25.6415 17.0289 20.4981 17.0289 16.3379 17.0289L19.2122 20.8864C24.2043 20.8864 30.558 20.8864 33.7348 20.8864C35.3232 20.8864 36.6847 21.189 37.9706 22.021C38.1975 22.0967 38.3487 22.1723 38.5 22.021Z" fill="black" />
            <path opacity="0.8" d="M6.65625 32.2323C7.03444 32.6105 7.41264 32.9887 7.79083 33.3668C8.92541 34.5771 10.1356 35.7873 11.6484 36.5436C13.3881 37.4513 15.279 37.2244 17.17 37.2244H31.4657L28.5914 33.3668C23.3724 33.3668 15.2034 33.3668 11.4215 33.3668C9.83307 33.3668 8.47157 33.0643 7.18572 32.2323C6.9588 32.1566 6.80753 32.1566 6.65625 32.2323Z" fill="black" />
            <path opacity="0.9" d="M3.4794 26.0301C3.85759 26.4083 4.23579 26.7865 4.61398 27.1647C5.74856 28.3749 6.95877 29.5851 8.47154 30.3415C10.2112 31.2492 12.1022 31.0223 13.9931 31.0223H26.7004L23.8262 27.1647C18.6827 27.1647 11.6484 27.1647 8.16899 27.1647C6.58058 27.1647 5.21908 26.8621 3.93322 26.0301C3.78195 25.9545 3.63068 25.9545 3.4794 26.0301Z" fill="black" />
            <path d="M0 19.9032C0.378193 20.2814 0.756385 20.6595 1.13458 21.0377C2.26916 22.248 3.47938 23.4582 4.99215 24.2146C6.73183 25.1222 8.62279 24.8953 10.5138 24.8953H22.1621L19.2878 21.0377C14.2957 21.0377 7.94205 21.0377 4.76523 21.0377C3.17682 21.0377 1.81532 20.7352 0.529467 19.9032C0.302552 19.8275 0.151277 19.8275 0 19.9032Z" fill="black" />
            <path d="M47.1905 12.2571V29.7501H51.037V22.5226H58.3625V19.5336H51.037V15.4911H59.4895V12.2571H47.1905Z" fill="black" />
            <path d="M69.1369 22.0571H63.4774C63.4938 21.8121 63.5428 21.5344 63.6244 21.2241C63.7224 20.9137 63.8776 20.6197 64.0899 20.3421C64.3186 20.0644 64.6126 19.8357 64.9719 19.6561C65.3476 19.4601 65.8131 19.3621 66.3684 19.3621C67.2178 19.3621 67.8466 19.5907 68.2549 20.0481C68.6796 20.5054 68.9736 21.1751 69.1369 22.0571ZM63.4774 24.2621H72.6159C72.6813 23.2821 72.5996 22.3429 72.3709 21.4446C72.1423 20.5462 71.7666 19.7459 71.2439 19.0436C70.7376 18.3412 70.0843 17.7859 69.2839 17.3776C68.4836 16.9529 67.5444 16.7406 66.4664 16.7406C65.5028 16.7406 64.6208 16.9121 63.8204 17.2551C63.0364 17.5981 62.3586 18.0717 61.7869 18.6761C61.2153 19.2641 60.7743 19.9664 60.4639 20.7831C60.1536 21.5997 59.9984 22.4817 59.9984 23.4291C59.9984 24.4091 60.1454 25.3074 60.4394 26.1241C60.7498 26.9407 61.1826 27.6431 61.7379 28.2311C62.2933 28.8191 62.9711 29.2764 63.7714 29.6031C64.5718 29.9134 65.4701 30.0686 66.4664 30.0686C67.9038 30.0686 69.1288 29.7419 70.1414 29.0886C71.1541 28.4352 71.9054 27.3491 72.3954 25.8301H69.3329C69.2186 26.2221 68.9083 26.5977 68.4019 26.9571C67.8956 27.3001 67.2913 27.4716 66.5889 27.4716C65.6089 27.4716 64.8576 27.2184 64.3349 26.7121C63.8123 26.2057 63.5264 25.3891 63.4774 24.2621Z" fill="black" />
            <path d="M73.7973 20.9791C73.8463 20.1624 74.0505 19.4846 74.4098 18.9456C74.7691 18.4066 75.2265 17.9737 75.7818 17.6471C76.3371 17.3204 76.9578 17.0917 77.6438 16.9611C78.3461 16.8141 79.0485 16.7406 79.7508 16.7406C80.3878 16.7406 81.033 16.7896 81.6863 16.8876C82.3396 16.9692 82.9358 17.1407 83.4748 17.4021C84.0138 17.6634 84.4548 18.0309 84.7978 18.5046C85.1408 18.9619 85.3123 19.5744 85.3123 20.3421V26.9326C85.3123 27.5042 85.345 28.0514 85.4103 28.5741C85.4756 29.0967 85.59 29.4887 85.7533 29.7501H82.2253C82.16 29.5541 82.1028 29.3581 82.0538 29.1621C82.0211 28.9497 81.9966 28.7374 81.9803 28.5251C81.425 29.0967 80.7716 29.4969 80.0203 29.7256C79.269 29.9542 78.5013 30.0686 77.7173 30.0686C77.113 30.0686 76.5495 29.9951 76.0268 29.8481C75.5041 29.7011 75.0468 29.4724 74.6548 29.1621C74.2628 28.8517 73.9525 28.4597 73.7238 27.9861C73.5115 27.5124 73.4053 26.9489 73.4053 26.2956C73.4053 25.5769 73.5278 24.9889 73.7728 24.5316C74.0341 24.0579 74.3608 23.6822 74.7528 23.4046C75.1611 23.1269 75.6185 22.9227 76.1248 22.7921C76.6475 22.6451 77.1701 22.5307 77.6928 22.4491C78.2155 22.3674 78.73 22.3021 79.2363 22.2531C79.7426 22.2041 80.1918 22.1306 80.5838 22.0326C80.9758 21.9346 81.2861 21.7957 81.5148 21.6161C81.7435 21.4201 81.8496 21.1424 81.8333 20.7831C81.8333 20.4074 81.768 20.1134 81.6373 19.9011C81.523 19.6724 81.3596 19.5009 81.1473 19.3866C80.9513 19.2559 80.7145 19.1742 80.4368 19.1416C80.1755 19.0926 79.8896 19.0681 79.5793 19.0681C78.8933 19.0681 78.3543 19.2151 77.9623 19.5091C77.5703 19.8031 77.3416 20.2931 77.2763 20.9791H73.7973ZM81.8333 23.5516C81.6863 23.6822 81.4985 23.7884 81.2698 23.8701C81.0575 23.9354 80.8206 23.9926 80.5593 24.0416C80.3143 24.0906 80.053 24.1314 79.7753 24.1641C79.4976 24.1967 79.22 24.2376 78.9423 24.2866C78.681 24.3356 78.4196 24.4009 78.1583 24.4826C77.9133 24.5642 77.6928 24.6786 77.4968 24.8256C77.3171 24.9562 77.1701 25.1277 77.0558 25.3401C76.9415 25.5524 76.8843 25.8219 76.8843 26.1486C76.8843 26.4589 76.9415 26.7202 77.0558 26.9326C77.1701 27.1449 77.3253 27.3164 77.5213 27.4471C77.7173 27.5614 77.946 27.6431 78.2073 27.6921C78.4686 27.7411 78.7381 27.7656 79.0158 27.7656C79.7018 27.7656 80.2326 27.6512 80.6083 27.4226C80.984 27.1939 81.2616 26.9244 81.4413 26.6141C81.621 26.2874 81.7271 25.9607 81.7598 25.6341C81.8088 25.3074 81.8333 25.0461 81.8333 24.8501V23.5516Z" fill="black" />
            <path d="M91.6877 17.0836V13.2861H88.2087V17.0836H86.1017V19.4111H88.2087V26.8836C88.2087 27.5206 88.3148 28.0351 88.5272 28.4271C88.7395 28.8191 89.0253 29.1212 89.3847 29.3336C89.7603 29.5459 90.185 29.6847 90.6587 29.7501C91.1487 29.8317 91.6632 29.8726 92.2022 29.8726C92.5452 29.8726 92.8963 29.8644 93.2557 29.8481C93.615 29.8317 93.9417 29.7991 94.2357 29.7501V27.0551C94.0723 27.0877 93.9008 27.1122 93.7212 27.1286C93.5415 27.1449 93.3537 27.1531 93.1577 27.1531C92.5697 27.1531 92.1777 27.0551 91.9817 26.8591C91.7857 26.6631 91.6877 26.2711 91.6877 25.6831V19.4111H94.2357V17.0836H91.6877Z" fill="black" />
            <path d="M95.1559 12.2571V29.7501H98.6349V23.1106C98.6349 21.8202 98.8473 20.8974 99.2719 20.3421C99.6966 19.7704 100.383 19.4846 101.33 19.4846C102.163 19.4846 102.743 19.7459 103.069 20.2686C103.396 20.7749 103.559 21.5507 103.559 22.5961V29.7501H107.038V21.9591C107.038 21.1751 106.965 20.4646 106.818 19.8276C106.687 19.1742 106.45 18.6271 106.107 18.1861C105.764 17.7287 105.291 17.3776 104.686 17.1326C104.098 16.8712 103.339 16.7406 102.408 16.7406C101.755 16.7406 101.085 16.9121 100.399 17.2551C99.7129 17.5817 99.1494 18.1126 98.7084 18.8476H98.6349V12.2571H95.1559Z" fill="black" />
            <path d="M117.47 22.0571H111.81C111.827 21.8121 111.876 21.5344 111.957 21.2241C112.055 20.9137 112.211 20.6197 112.423 20.3421C112.652 20.0644 112.946 19.8357 113.305 19.6561C113.681 19.4601 114.146 19.3621 114.701 19.3621C115.551 19.3621 116.18 19.5907 116.588 20.0481C117.013 20.5054 117.307 21.1751 117.47 22.0571ZM111.81 24.2621H120.949C121.014 23.2821 120.933 22.3429 120.704 21.4446C120.475 20.5462 120.1 19.7459 119.577 19.0436C119.071 18.3412 118.417 17.7859 117.617 17.3776C116.817 16.9529 115.877 16.7406 114.799 16.7406C113.836 16.7406 112.954 16.9121 112.153 17.2551C111.369 17.5981 110.692 18.0717 110.12 18.6761C109.548 19.2641 109.107 19.9664 108.797 20.7831C108.487 21.5997 108.331 22.4817 108.331 23.4291C108.331 24.4091 108.478 25.3074 108.772 26.1241C109.083 26.9407 109.516 27.6431 110.071 28.2311C110.626 28.8191 111.304 29.2764 112.104 29.6031C112.905 29.9134 113.803 30.0686 114.799 30.0686C116.237 30.0686 117.462 29.7419 118.474 29.0886C119.487 28.4352 120.238 27.3491 120.728 25.8301H117.666C117.552 26.2221 117.241 26.5977 116.735 26.9571C116.229 27.3001 115.624 27.4716 114.922 27.4716C113.942 27.4716 113.191 27.2184 112.668 26.7121C112.145 26.2057 111.859 25.3891 111.81 24.2621Z" fill="black" />
            <path d="M122.277 17.0836V29.7501H125.756V24.0416C125.756 23.4699 125.813 22.9391 125.928 22.4491C126.042 21.9591 126.23 21.5344 126.491 21.1751C126.769 20.7994 127.128 20.5054 127.569 20.2931C128.01 20.0807 128.549 19.9746 129.186 19.9746C129.399 19.9746 129.619 19.9909 129.848 20.0236C130.076 20.0399 130.272 20.0644 130.436 20.0971V16.8631C130.158 16.7814 129.905 16.7406 129.676 16.7406C129.235 16.7406 128.811 16.8059 128.402 16.9366C127.994 17.0672 127.61 17.2551 127.251 17.5001C126.891 17.7287 126.573 18.0146 126.295 18.3576C126.018 18.6842 125.797 19.0436 125.634 19.4356H125.585V17.0836H122.277Z" fill="black" />
            <path d="M135.279 26.5161V15.4911H138.023C138.97 15.4911 139.762 15.6299 140.399 15.9076C141.053 16.1689 141.575 16.5527 141.967 17.0591C142.359 17.5654 142.637 18.1779 142.8 18.8966C142.98 19.5989 143.07 20.3911 143.07 21.2731C143.07 22.2367 142.947 23.0534 142.702 23.7231C142.457 24.3927 142.131 24.9399 141.722 25.3646C141.314 25.7729 140.848 26.0669 140.326 26.2466C139.803 26.4262 139.264 26.5161 138.709 26.5161H135.279ZM131.432 12.2571V29.7501H138.978C140.318 29.7501 141.477 29.5296 142.457 29.0886C143.454 28.6312 144.278 28.0106 144.932 27.2266C145.601 26.4426 146.1 25.5116 146.426 24.4336C146.753 23.3556 146.916 22.1796 146.916 20.9056C146.916 19.4519 146.712 18.1861 146.304 17.1081C145.912 16.0301 145.356 15.1317 144.638 14.4131C143.935 13.6944 143.094 13.1554 142.114 12.7961C141.151 12.4367 140.105 12.2571 138.978 12.2571H131.432Z" fill="black" />
            <path d="M157.015 22.0571H151.356C151.372 21.8121 151.421 21.5344 151.503 21.2241C151.601 20.9137 151.756 20.6197 151.968 20.3421C152.197 20.0644 152.491 19.8357 152.85 19.6561C153.226 19.4601 153.692 19.3621 154.247 19.3621C155.096 19.3621 155.725 19.5907 156.133 20.0481C156.558 20.5054 156.852 21.1751 157.015 22.0571ZM151.356 24.2621H160.494C160.56 23.2821 160.478 22.3429 160.249 21.4446C160.021 20.5462 159.645 19.7459 159.122 19.0436C158.616 18.3412 157.963 17.7859 157.162 17.3776C156.362 16.9529 155.423 16.7406 154.345 16.7406C153.381 16.7406 152.499 16.9121 151.699 17.2551C150.915 17.5981 150.237 18.0717 149.665 18.6761C149.094 19.2641 148.653 19.9664 148.342 20.7831C148.032 21.5997 147.877 22.4817 147.877 23.4291C147.877 24.4091 148.024 25.3074 148.318 26.1241C148.628 26.9407 149.061 27.6431 149.616 28.2311C150.172 28.8191 150.85 29.2764 151.65 29.6031C152.45 29.9134 153.349 30.0686 154.345 30.0686C155.782 30.0686 157.007 29.7419 158.02 29.0886C159.033 28.4352 159.784 27.3491 160.274 25.8301H157.211C157.097 26.2221 156.787 26.5977 156.28 26.9571C155.774 27.3001 155.17 27.4716 154.467 27.4716C153.487 27.4716 152.736 27.2184 152.213 26.7121C151.691 26.2057 151.405 25.3891 151.356 24.2621Z" fill="black" />
            <path d="M168.83 29.7501L173.117 17.0836H169.663L166.992 25.7321H166.943L164.273 17.0836H160.622L164.959 29.7501H168.83Z" fill="black" />
        </svg>