        <svg width="173" height="42" viewBox="0 0 173 42" xmlns="http://www.w3.org/2000/svg">
            <path d="M27.1253 1.75H12.3747L0.5 13.6247V28.3753L12.3747 40.25H27.1253L39 28.3753V13.6247L27.1253 1.75ZM14.4157 28.5608L6.80845 20.9536L14.4157 13.3464C17.2916 10.4705 22.0229 10.4705 24.8988 13.3464L32.506 20.9536L24.8988 28.5608C22.0229 31.4367 17.3843 31.4367 14.4157 28.5608Z" fill="black" />
            <path d="M55.9225 29.96C58.285 29.96 60.2275 28.7525 60.8312 26.9412V29.75H64.3225V22.6625C64.3225 21.0612 63.0625 19.6962 61.3562 19.6962H56.3687V22.6625H59.9125C60.3587 22.6625 60.6475 22.9512 60.6475 23.3975C60.6475 25.1037 58.39 26.7575 56.1062 26.7575C53.0612 26.7575 50.6462 24.3687 50.6462 20.5625C50.6462 16.7562 53.0612 14.5512 56.185 14.5512C58.5475 14.5512 60.175 15.8375 60.4637 17.8062H64.375C64.1387 13.8687 60.8312 11.165 56.2112 11.165C51.355 11.165 46.8925 14.2887 46.8925 20.5625C46.8925 26.8362 51.2237 29.96 55.9225 29.96Z" fill="black" />
            <path d="M65.8212 29.75H69.4699V10.7712H65.8212V29.75Z" fill="black" />
            <path d="M77.3406 29.96C81.4094 29.96 84.3231 27.0725 84.3231 23.135C84.3231 19.1975 81.4094 16.31 77.3406 16.31C73.2719 16.31 70.3581 19.1975 70.3581 23.135C70.3581 27.0725 73.2719 29.96 77.3406 29.96ZM77.3406 26.81C75.3719 26.81 74.0331 25.3137 74.0331 23.135C74.0331 20.93 75.3719 19.4337 77.3406 19.4337C79.3094 19.4337 80.6481 20.93 80.6481 23.135C80.6481 25.3137 79.3094 26.81 77.3406 26.81Z" fill="black" />
            <path d="M92.4877 29.96C96.399 29.96 98.7352 27.2562 98.7352 23.135C98.7352 19.0137 96.399 16.31 92.5402 16.31C90.8865 16.31 89.6002 16.94 88.8652 17.9112V10.7712H85.2165V29.75H88.8652V28.3062C89.6002 29.33 90.9652 29.96 92.4877 29.96ZM91.9102 26.81C89.9415 26.81 88.6552 25.34 88.6552 23.135C88.6552 20.9037 89.9415 19.4337 91.9102 19.4337C93.8265 19.4337 95.139 20.9037 95.139 23.135C95.139 25.34 93.8265 26.81 91.9102 26.81Z" fill="black" />
            <path d="M104.843 16.31C101.221 16.31 99.0681 18.4362 98.9105 21.0875H102.166C102.218 19.985 103.032 18.9875 104.633 18.9875C106.129 18.9875 106.996 19.7487 106.996 20.8512C106.996 21.4025 106.654 21.8225 105.998 21.8225H103.767C100.879 21.8225 98.9368 23.3975 98.9368 25.9962C98.9368 28.2537 100.696 29.96 103.268 29.96C105.079 29.96 106.549 29.1462 106.996 27.9125V29.75H110.618V21.245C110.618 18.2525 108.177 16.31 104.843 16.31ZM104.187 27.3087C103.163 27.3087 102.428 26.705 102.428 25.8387C102.428 24.815 103.216 24.1325 104.318 24.1325H106.996V24.3162C106.996 25.9962 105.972 27.3087 104.187 27.3087Z" fill="black" />
            <path d="M112.02 29.75H115.669V10.7712H112.02V29.75Z" fill="black" />
            <path d="M117.607 29.75H125.115C129 29.75 131.677 27.755 131.677 24.2637C131.677 21.8487 130.26 20.3787 128.58 19.7225C129.656 19.145 130.732 17.8325 130.732 16.1C130.732 13.0287 128.238 11.375 124.905 11.375H117.607V29.75ZM121.492 18.3837V14.4987H124.537C126.296 14.4987 127.083 15.2075 127.083 16.4412C127.083 17.675 126.296 18.3837 124.616 18.3837H121.492ZM121.492 26.3375V21.7175H124.773C126.952 21.7175 127.923 22.5575 127.923 24.0537C127.923 25.55 126.952 26.3375 124.773 26.3375H121.492Z" fill="black" />
            <path d="M138.025 16.31C134.402 16.31 132.25 18.4362 132.092 21.0875H135.347C135.4 19.985 136.213 18.9875 137.815 18.9875C139.311 18.9875 140.177 19.7487 140.177 20.8512C140.177 21.4025 139.836 21.8225 139.18 21.8225H136.948C134.061 21.8225 132.118 23.3975 132.118 25.9962C132.118 28.2537 133.877 29.96 136.45 29.96C138.261 29.96 139.731 29.1462 140.177 27.9125V29.75H143.8V21.245C143.8 18.2525 141.358 16.31 138.025 16.31ZM137.368 27.3087C136.345 27.3087 135.61 26.705 135.61 25.8387C135.61 24.815 136.397 24.1325 137.5 24.1325H140.177V24.3162C140.177 25.9962 139.153 27.3087 137.368 27.3087Z" fill="black" />
            <path d="M144.992 29.75H148.667V22.505C148.667 20.7987 149.796 19.565 151.397 19.565C152.919 19.565 153.943 20.72 153.943 22.3212V29.75H157.618V21.5075C157.618 18.4625 155.676 16.31 152.683 16.31C150.872 16.31 149.402 17.0712 148.667 18.3575V16.52H144.992V29.75Z" fill="black" />
            <path d="M168.092 29.75H172.502L166.806 21.7175L172.082 16.52H167.462L162.868 21.035V10.7712H159.193V29.75H162.868V25.6025L164.338 24.1587L168.092 29.75Z" fill="black" />
        </svg>