<svg width="1440" height="1120" viewBox="0 0 1440 1120" fill="none" xmlns="http://www.w3.org/2000/svg">
<g opacity="0.6" clip-path="url(#clip0_603_8062)">
<rect width="80" height="80" stroke="#E5E5E5"/>
<rect x="80" width="80" height="80" stroke="#E5E5E5"/>
<rect width="80" height="80" transform="translate(160)" fill="#E8F6FF"/>
<rect x="240" width="80" height="80" stroke="#E5E5E5"/>
<rect x="320" width="80" height="80" stroke="#E5E5E5"/>
<rect x="400" width="80" height="80" stroke="#E5E5E5"/>
<rect x="480" width="80" height="80" stroke="#E5E5E5"/>
<rect x="560" width="80" height="80" stroke="#E5E5E5"/>
<rect x="640" width="80" height="80" stroke="#E5E5E5"/>
<rect width="80" height="80" transform="translate(720)" fill="#E8F6FF"/>
<rect x="800" width="80" height="80" stroke="#E5E5E5"/>
<rect x="880" width="80" height="80" stroke="#E5E5E5"/>
<rect x="960" width="80" height="80" stroke="#E5E5E5"/>
<rect x="1040" width="80" height="80" stroke="#E5E5E5"/>
<rect x="1120" width="80" height="80" stroke="#E5E5E5"/>
<rect x="1200" width="80" height="80" stroke="#E5E5E5"/>
<rect x="1280" width="80" height="80" stroke="#E5E5E5"/>
<rect x="1360" width="80" height="80" stroke="#E5E5E5"/>
<rect y="80" width="80" height="80" stroke="#E5E5E5"/>
<rect x="80" y="80" width="80" height="80" stroke="#E5E5E5"/>
<rect x="160" y="80" width="80" height="80" stroke="#E5E5E5"/>
<rect x="240" y="80" width="80" height="80" stroke="#E5E5E5"/>
<rect x="320" y="80" width="80" height="80" stroke="#E5E5E5"/>
<rect width="80" height="80" transform="translate(400 80)" fill="#E8F6FF"/>
<rect x="480" y="80" width="80" height="80" stroke="#E5E5E5"/>
<rect x="560" y="80" width="80" height="80" stroke="#E5E5E5"/>
<rect x="640" y="80" width="80" height="80" stroke="#E5E5E5"/>
<rect x="720" y="80" width="80" height="80" stroke="#E5E5E5"/>
<rect x="800" y="80" width="80" height="80" stroke="#E5E5E5"/>
<rect x="880" y="80" width="80" height="80" stroke="#E5E5E5"/>
<rect x="960" y="80" width="80" height="80" stroke="#E5E5E5"/>
<rect x="1040" y="80" width="80" height="80" stroke="#E5E5E5"/>
<rect x="1120" y="80" width="80" height="80" stroke="#E5E5E5"/>
<rect x="1200" y="80" width="80" height="80" stroke="#E5E5E5"/>
<rect x="1280" y="80" width="80" height="80" stroke="#E5E5E5"/>
<rect x="1360" y="80" width="80" height="80" stroke="#E5E5E5"/>
<rect width="80" height="80" transform="translate(0 160)" fill="#E8F6FF"/>
<rect x="80" y="160" width="80" height="80" stroke="#E5E5E5"/>
<rect width="80" height="80" transform="translate(160 160)" fill="#E8F6FF"/>
<rect x="240" y="160" width="80" height="80" stroke="#E5E5E5"/>
<rect x="320" y="160" width="80" height="80" stroke="#E5E5E5"/>
<rect x="400" y="160" width="80" height="80" stroke="#E5E5E5"/>
<rect x="480" y="160" width="80" height="80" stroke="#E5E5E5"/>
<rect x="560" y="160" width="80" height="80" stroke="#E5E5E5"/>
<rect x="640" y="160" width="80" height="80" stroke="#E5E5E5"/>
<rect x="720" y="160" width="80" height="80" stroke="#E5E5E5"/>
<rect x="800" y="160" width="80" height="80" stroke="#E5E5E5"/>
<rect x="880" y="160" width="80" height="80" stroke="#E5E5E5"/>
<rect x="960" y="160" width="80" height="80" stroke="#E5E5E5"/>
<rect width="80" height="80" transform="translate(1040 160)" fill="#E8F6FF"/>
<rect x="1120" y="160" width="80" height="80" stroke="#E5E5E5"/>
<rect x="1200" y="160" width="80" height="80" stroke="#E5E5E5"/>
<rect x="1280" y="160" width="80" height="80" stroke="#E5E5E5"/>
<rect x="1360" y="160" width="80" height="80" stroke="#E5E5E5"/>
<rect y="240" width="80" height="80" stroke="#E5E5E5"/>
<rect x="80" y="240" width="80" height="80" stroke="#E5E5E5"/>
<rect x="160" y="240" width="80" height="80" stroke="#E5E5E5"/>
<rect x="240" y="240" width="80" height="80" stroke="#E5E5E5"/>
<rect width="80" height="80" transform="translate(320 240)" fill="#E8F6FF"/>
<rect x="400" y="240" width="80" height="80" stroke="#E5E5E5"/>
<rect x="480" y="240" width="80" height="80" stroke="#E5E5E5"/>
<rect width="80" height="80" transform="translate(560 240)" fill="#E8F6FF"/>
<rect x="640" y="240" width="80" height="80" stroke="#E5E5E5"/>
<rect x="720" y="240" width="80" height="80" stroke="#E5E5E5"/>
<rect x="800" y="240" width="80" height="80" stroke="#E5E5E5"/>
<rect x="880" y="240" width="80" height="80" stroke="#E5E5E5"/>
<rect x="960" y="240" width="80" height="80" stroke="#E5E5E5"/>
<rect x="1040" y="240" width="80" height="80" stroke="#E5E5E5"/>
<rect x="1120" y="240" width="80" height="80" stroke="#E5E5E5"/>
<rect x="1200" y="240" width="80" height="80" stroke="#E5E5E5"/>
<rect x="1280" y="240" width="80" height="80" stroke="#E5E5E5"/>
<rect x="1360" y="240" width="80" height="80" stroke="#E5E5E5"/>
<rect y="320" width="80" height="80" stroke="#E5E5E5"/>
<rect x="80" y="320" width="80" height="80" stroke="#E5E5E5"/>
<rect x="160" y="320" width="80" height="80" stroke="#E5E5E5"/>
<rect x="240" y="320" width="80" height="80" stroke="#E5E5E5"/>
<rect x="320" y="320" width="80" height="80" stroke="#E5E5E5"/>
<rect x="400" y="320" width="80" height="80" stroke="#E5E5E5"/>
<rect x="480" y="320" width="80" height="80" stroke="#E5E5E5"/>
<rect x="560" y="320" width="80" height="80" stroke="#E5E5E5"/>
<rect x="640" y="320" width="80" height="80" stroke="#E5E5E5"/>
<rect x="720" y="320" width="80" height="80" stroke="#E5E5E5"/>
<rect x="800" y="320" width="80" height="80" stroke="#E5E5E5"/>
<rect width="80" height="80" transform="translate(880 320)" fill="#E8F6FF"/>
<rect x="960" y="320" width="80" height="80" stroke="#E5E5E5"/>
<rect x="1040" y="320" width="80" height="80" stroke="#E5E5E5"/>
<rect width="80" height="80" transform="translate(1120 320)" fill="#E8F6FF"/>
<rect x="1200" y="320" width="80" height="80" stroke="#E5E5E5"/>
<rect x="1280" y="320" width="80" height="80" stroke="#E5E5E5"/>
<rect x="1360" y="320" width="80" height="80" stroke="#E5E5E5"/>
<rect y="400" width="80" height="80" stroke="#E5E5E5"/>
<rect x="80" y="400" width="80" height="80" stroke="#E5E5E5"/>
<rect x="160" y="400" width="80" height="80" stroke="#E5E5E5"/>
<rect x="240" y="400" width="80" height="80" stroke="#E5E5E5"/>
<rect width="80" height="80" transform="translate(320 400)" fill="#E8F6FF"/>
<rect x="400" y="400" width="80" height="80" stroke="#E5E5E5"/>
<rect x="480" y="400" width="80" height="80" stroke="#E5E5E5"/>
<rect x="560" y="400" width="80" height="80" stroke="#E5E5E5"/>
<rect width="80" height="80" transform="translate(640 400)" fill="#E8F6FF"/>
<rect x="720" y="400" width="80" height="80" stroke="#E5E5E5"/>
<rect x="800" y="400" width="80" height="80" stroke="#E5E5E5"/>
<rect x="880" y="400" width="80" height="80" stroke="#E5E5E5"/>
<rect x="960" y="400" width="80" height="80" stroke="#E5E5E5"/>
<rect x="1040" y="400" width="80" height="80" stroke="#E5E5E5"/>
<rect x="1120" y="400" width="80" height="80" stroke="#E5E5E5"/>
<rect x="1200" y="400" width="80" height="80" stroke="#E5E5E5"/>
<rect width="80" height="80" transform="translate(1280 400)" fill="#E8F6FF"/>
<rect x="1360" y="400" width="80" height="80" stroke="#E5E5E5"/>
<rect y="480" width="80" height="80" stroke="#E5E5E5"/>
<rect x="80" y="480" width="80" height="80" stroke="#E5E5E5"/>
<rect x="160" y="480" width="80" height="80" stroke="#E5E5E5"/>
<rect x="240" y="480" width="80" height="80" stroke="#E5E5E5"/>
<rect x="320" y="480" width="80" height="80" stroke="#E5E5E5"/>
<rect x="400" y="480" width="80" height="80" stroke="#E5E5E5"/>
<rect x="480" y="480" width="80" height="80" stroke="#E5E5E5"/>
<rect x="560" y="480" width="80" height="80" stroke="#E5E5E5"/>
<rect x="640" y="480" width="80" height="80" stroke="#E5E5E5"/>
<rect x="720" y="480" width="80" height="80" stroke="#E5E5E5"/>
<rect x="800" y="480" width="80" height="80" stroke="#E5E5E5"/>
<rect x="880" y="480" width="80" height="80" stroke="#E5E5E5"/>
<rect x="960" y="480" width="80" height="80" stroke="#E5E5E5"/>
<rect x="1040" y="480" width="80" height="80" stroke="#E5E5E5"/>
<rect x="1120" y="480" width="80" height="80" stroke="#E5E5E5"/>
<rect x="1200" y="480" width="80" height="80" stroke="#E5E5E5"/>
<rect x="1280" y="480" width="80" height="80" stroke="#E5E5E5"/>
<rect x="1360" y="480" width="80" height="80" stroke="#E5E5E5"/>
<rect width="80" height="80" transform="translate(0 560)" fill="#E8F6FF"/>
<rect x="80" y="560" width="80" height="80" stroke="#E5E5E5"/>
<rect x="160" y="560" width="80" height="80" stroke="#E5E5E5"/>
<rect x="240" y="560" width="80" height="80" stroke="#E5E5E5"/>
<rect x="320" y="560" width="80" height="80" stroke="#E5E5E5"/>
<rect x="400" y="560" width="80" height="80" stroke="#E5E5E5"/>
<rect x="480" y="560" width="80" height="80" stroke="#E5E5E5"/>
<rect x="560" y="560" width="80" height="80" stroke="#E5E5E5"/>
<rect x="640" y="560" width="80" height="80" stroke="#E5E5E5"/>
<rect x="720" y="560" width="80" height="80" stroke="#E5E5E5"/>
<rect x="800" y="560" width="80" height="80" stroke="#E5E5E5"/>
<rect x="880" y="560" width="80" height="80" stroke="#E5E5E5"/>
<rect x="960" y="560" width="80" height="80" stroke="#E5E5E5"/>
<rect x="1040" y="560" width="80" height="80" stroke="#E5E5E5"/>
<rect x="1120" y="560" width="80" height="80" stroke="#E5E5E5"/>
<rect x="1200" y="560" width="80" height="80" stroke="#E5E5E5"/>
<rect x="1280" y="560" width="80" height="80" stroke="#E5E5E5"/>
<rect x="1360" y="560" width="80" height="80" stroke="#E5E5E5"/>
<rect y="640" width="80" height="80" stroke="#E5E5E5"/>
<rect x="80" y="640" width="80" height="80" stroke="#E5E5E5"/>
<rect x="160" y="640" width="80" height="80" stroke="#E5E5E5"/>
<rect x="240" y="640" width="80" height="80" stroke="#E5E5E5"/>
<rect x="320" y="640" width="80" height="80" stroke="#E5E5E5"/>
<rect x="400" y="640" width="80" height="80" stroke="#E5E5E5"/>
<rect x="480" y="640" width="80" height="80" stroke="#E5E5E5"/>
<rect width="80" height="80" transform="translate(560 640)" fill="#E8F6FF"/>
<rect x="640" y="640" width="80" height="80" stroke="#E5E5E5"/>
<rect x="720" y="640" width="80" height="80" stroke="#E5E5E5"/>
<rect x="800" y="640" width="80" height="80" stroke="#E5E5E5"/>
<rect x="880" y="640" width="80" height="80" stroke="#E5E5E5"/>
<rect x="960" y="640" width="80" height="80" stroke="#E5E5E5"/>
<rect x="1040" y="640" width="80" height="80" stroke="#E5E5E5"/>
<rect x="1120" y="640" width="80" height="80" stroke="#E5E5E5"/>
<rect x="1200" y="640" width="80" height="80" stroke="#E5E5E5"/>
<rect x="1280" y="640" width="80" height="80" stroke="#E5E5E5"/>
<rect x="1360" y="640" width="80" height="80" stroke="#E5E5E5"/>
<rect y="720" width="80" height="80" stroke="#E5E5E5"/>
<rect x="80" y="720" width="80" height="80" stroke="#E5E5E5"/>
<rect x="160" y="720" width="80" height="80" stroke="#E5E5E5"/>
<rect x="240" y="720" width="80" height="80" stroke="#E5E5E5"/>
<rect x="320" y="720" width="80" height="80" stroke="#E5E5E5"/>
<rect x="400" y="720" width="80" height="80" stroke="#E5E5E5"/>
<rect x="480" y="720" width="80" height="80" stroke="#E5E5E5"/>
<rect x="560" y="720" width="80" height="80" stroke="#E5E5E5"/>
<rect width="80" height="80" transform="translate(640 720)" fill="#E8F6FF"/>
<rect width="80" height="80" transform="translate(720 720)" fill="#E8F6FF"/>
<rect x="800" y="720" width="80" height="80" stroke="#E5E5E5"/>
<rect x="880" y="720" width="80" height="80" stroke="#E5E5E5"/>
<rect x="960" y="720" width="80" height="80" stroke="#E5E5E5"/>
<rect x="1040" y="720" width="80" height="80" stroke="#E5E5E5"/>
<rect x="1120" y="720" width="80" height="80" stroke="#E5E5E5"/>
<rect width="80" height="80" transform="translate(1200 720)" fill="#E8F6FF"/>
<rect x="1280" y="720" width="80" height="80" stroke="#E5E5E5"/>
<rect width="80" height="80" transform="translate(1360 720)" fill="#E8F6FF"/>
<rect y="800" width="80" height="80" stroke="#E5E5E5"/>
<rect x="80" y="800" width="80" height="80" stroke="#E5E5E5"/>
<rect x="160" y="800" width="80" height="80" stroke="#E5E5E5"/>
<rect x="240" y="800" width="80" height="80" stroke="#E5E5E5"/>
<rect x="320" y="800" width="80" height="80" stroke="#E5E5E5"/>
<rect x="400" y="800" width="80" height="80" stroke="#E5E5E5"/>
<rect x="480" y="800" width="80" height="80" stroke="#E5E5E5"/>
<rect width="80" height="80" transform="translate(560 800)" fill="#E8F6FF"/>
<rect x="640" y="800" width="80" height="80" stroke="#E5E5E5"/>
<rect x="720" y="800" width="80" height="80" stroke="#E5E5E5"/>
<rect x="800" y="800" width="80" height="80" stroke="#E5E5E5"/>
<rect x="880" y="800" width="80" height="80" stroke="#E5E5E5"/>
<rect x="960" y="800" width="80" height="80" stroke="#E5E5E5"/>
<rect x="1040" y="800" width="80" height="80" stroke="#E5E5E5"/>
<rect x="1120" y="800" width="80" height="80" stroke="#E5E5E5"/>
<rect x="1200" y="800" width="80" height="80" stroke="#E5E5E5"/>
<rect x="1280" y="800" width="80" height="80" stroke="#E5E5E5"/>
<rect x="1360" y="800" width="80" height="80" stroke="#E5E5E5"/>
<rect y="880" width="80" height="80" stroke="#E5E5E5"/>
<rect x="80" y="880" width="80" height="80" stroke="#E5E5E5"/>
<rect x="160" y="880" width="80" height="80" stroke="#E5E5E5"/>
<rect x="240" y="880" width="80" height="80" stroke="#E5E5E5"/>
<rect x="320" y="880" width="80" height="80" stroke="#E5E5E5"/>
<rect x="400" y="880" width="80" height="80" stroke="#E5E5E5"/>
<rect x="480" y="880" width="80" height="80" stroke="#E5E5E5"/>
<rect x="560" y="880" width="80" height="80" stroke="#E5E5E5"/>
<rect x="640" y="880" width="80" height="80" stroke="#E5E5E5"/>
<rect width="80" height="80" transform="translate(720 880)" fill="#E8F6FF"/>
<rect x="800" y="880" width="80" height="80" stroke="#E5E5E5"/>
<rect x="880" y="880" width="80" height="80" stroke="#E5E5E5"/>
<rect x="960" y="880" width="80" height="80" stroke="#E5E5E5"/>
<rect width="80" height="80" transform="translate(1040 880)" fill="#E8F6FF"/>
<rect x="1120" y="880" width="80" height="80" stroke="#E5E5E5"/>
<rect x="1200" y="880" width="80" height="80" stroke="#E5E5E5"/>
<rect x="1280" y="880" width="80" height="80" stroke="#E5E5E5"/>
<rect x="1360" y="880" width="80" height="80" stroke="#E5E5E5"/>
<rect y="960" width="80" height="80" stroke="#E5E5E5"/>
<rect x="80" y="960" width="80" height="80" stroke="#E5E5E5"/>
<rect x="160" y="960" width="80" height="80" stroke="#E5E5E5"/>
<rect x="240" y="960" width="80" height="80" stroke="#E5E5E5"/>
<rect x="320" y="960" width="80" height="80" stroke="#E5E5E5"/>
<rect x="400" y="960" width="80" height="80" stroke="#E5E5E5"/>
<rect x="480" y="960" width="80" height="80" stroke="#E5E5E5"/>
<rect x="560" y="960" width="80" height="80" stroke="#E5E5E5"/>
<rect x="640" y="960" width="80" height="80" stroke="#E5E5E5"/>
<rect width="80" height="80" transform="translate(720 960)" fill="#E8F6FF"/>
<rect x="800" y="960" width="80" height="80" stroke="#E5E5E5"/>
<rect x="880" y="960" width="80" height="80" stroke="#E5E5E5"/>
<rect x="960" y="960" width="80" height="80" stroke="#E5E5E5"/>
<rect width="80" height="80" transform="translate(1040 960)" fill="#E8F6FF"/>
<rect x="1120" y="960" width="80" height="80" stroke="#E5E5E5"/>
<rect x="1200" y="960" width="80" height="80" stroke="#E5E5E5"/>
<rect x="1280" y="960" width="80" height="80" stroke="#E5E5E5"/>
<rect x="1360" y="960" width="80" height="80" stroke="#E5E5E5"/>
<rect y="1040" width="80" height="80" stroke="#E5E5E5"/>
<rect x="80" y="1040" width="80" height="80" stroke="#E5E5E5"/>
<rect x="160" y="1040" width="80" height="80" stroke="#E5E5E5"/>
<rect x="240" y="1040" width="80" height="80" stroke="#E5E5E5"/>
<rect x="320" y="1040" width="80" height="80" stroke="#E5E5E5"/>
<rect x="400" y="1040" width="80" height="80" stroke="#E5E5E5"/>
<rect x="480" y="1040" width="80" height="80" stroke="#E5E5E5"/>
<rect x="560" y="1040" width="80" height="80" stroke="#E5E5E5"/>
<rect x="640" y="1040" width="80" height="80" stroke="#E5E5E5"/>
<rect width="80" height="80" transform="translate(720 1040)" fill="#E8F6FF"/>
<rect x="800" y="1040" width="80" height="80" stroke="#E5E5E5"/>
<rect x="880" y="1040" width="80" height="80" stroke="#E5E5E5"/>
<rect x="960" y="1040" width="80" height="80" stroke="#E5E5E5"/>
<rect width="80" height="80" transform="translate(1040 1040)" fill="#E8F6FF"/>
<rect x="1120" y="1040" width="80" height="80" stroke="#E5E5E5"/>
<rect x="1200" y="1040" width="80" height="80" stroke="#E5E5E5"/>
<rect x="1280" y="1040" width="80" height="80" stroke="#E5E5E5"/>
<rect x="1360" y="1040" width="80" height="80" stroke="#E5E5E5"/>
</g>
<defs>
<filter id="filter0_if_603_8062" x="120" y="589" width="1200" height="902" filterUnits="userSpaceOnUse" color-interpolation-filters="sRGB">
<feFlood flood-opacity="0" result="BackgroundImageFix"/>
<feBlend mode="normal" in="SourceGraphic" in2="BackgroundImageFix" result="shape"/>
<feColorMatrix in="SourceAlpha" type="matrix" values="0 0 0 0 0 0 0 0 0 0 0 0 0 0 0 0 0 0 127 0" result="hardAlpha"/>
<feOffset dy="4"/>
<feGaussianBlur stdDeviation="24"/>
<feComposite in2="hardAlpha" operator="arithmetic" k2="-1" k3="1"/>
<feColorMatrix type="matrix" values="0 0 0 0 0.431901 0 0 0 0 0.77226 0 0 0 0 1 0 0 0 1 0"/>
<feBlend mode="normal" in2="shape" result="effect1_innerShadow_603_8062"/>
<feGaussianBlur stdDeviation="43" result="effect2_foregroundBlur_603_8062"/>
</filter>
<clipPath id="clip0_603_8062">
<rect width="1440" height="1120" fill="white"/>
</clipPath>
</defs>
</svg>
