        <svg width="147" height="42" viewBox="0 0 147 42" xmlns="http://www.w3.org/2000/svg">
            <path fillRule="evenodd" clipRule="evenodd" d="M18.1698 3.0169C17.7279 2.92601 17.2721 2.92601 16.8302 3.0169C16.3194 3.12196 15.8628 3.37768 15.4998 3.58099L15.4009 3.63626L3.09884 10.4707C3.06483 10.4896 3.02978 10.5089 2.99387 10.5287C2.60963 10.7404 2.1265 11.0065 1.75549 11.4091C1.43472 11.7571 1.19197 12.1697 1.04347 12.6191C0.87171 13.139 0.87372 13.6906 0.875318 14.1292C0.875467 14.1702 0.875613 14.2102 0.875613 14.2491V27.7433C0.875613 27.7822 0.875467 27.8222 0.875318 27.8632C0.87372 28.3019 0.87171 28.8535 1.04347 29.3733C1.19197 29.8228 1.43472 30.2353 1.75549 30.5834C2.1265 30.986 2.60963 31.2521 2.99387 31.4638C3.02978 31.4835 3.06483 31.5028 3.09884 31.5217L15.4009 38.3562L15.4998 38.4115C15.8628 38.6148 16.3194 38.8705 16.8302 38.9756C17.2721 39.0665 17.7279 39.0665 18.1698 38.9756C18.6806 38.8705 19.1372 38.6148 19.5002 38.4115L19.5991 38.3562L31.9012 31.5217C31.9162 31.5134 31.9314 31.5049 31.9468 31.4964C31.9663 31.4857 31.9861 31.4748 32.0061 31.4638C32.3904 31.2521 32.8735 30.986 33.2445 30.5834C33.5653 30.2353 33.808 29.8228 33.9565 29.3733C34.1283 28.8535 34.1263 28.3019 34.1247 27.8632C34.1245 27.8222 34.1244 27.7822 34.1244 27.7433V14.2491C34.1244 14.2102 34.1245 14.1702 34.1247 14.1292C34.1263 13.6906 34.1283 13.139 33.9565 12.6191C33.808 12.1697 33.5653 11.7571 33.2445 11.4091C32.8735 11.0064 32.3904 10.7403 32.0061 10.5287L32.0048 10.528C31.9693 10.5084 31.9347 10.4894 31.9012 10.4707L19.5991 3.63626L19.5002 3.58098C19.1372 3.37768 18.6806 3.12195 18.1698 3.0169ZM17.0156 6.54273C17.2675 6.40277 17.3961 6.33205 17.4921 6.28578L17.5 6.28197L17.5079 6.28578C17.6039 6.33205 17.7325 6.40276 17.9844 6.54272L29.0387 12.684L17.4999 19.0944L5.96124 12.684L17.0156 6.54273ZM4.20049 15.5094L15.8375 21.9744L15.8376 34.7953L4.71354 28.6153C4.44763 28.4675 4.31187 28.3913 4.21662 28.3306L4.20857 28.3255L4.20797 28.316C4.20118 28.2032 4.20049 28.0475 4.20049 27.7433V15.5094Z" fill="black" />
            <path d="M49.2547 26.5522H54.5467V29.6707H45.2148V13.0859H49.2547V26.5522Z" fill="black" />
            <path d="M58.2691 15.1177C57.5603 15.1177 56.9776 14.9129 56.5209 14.5034C56.0799 14.0782 55.8594 13.5584 55.8594 12.9442C55.8594 12.3142 56.0799 11.7944 56.5209 11.3849C56.9776 10.9597 57.5603 10.7471 58.2691 10.7471C58.9621 10.7471 59.5291 10.9597 59.9701 11.3849C60.4268 11.7944 60.6552 12.3142 60.6552 12.9442C60.6552 13.5584 60.4268 14.0782 59.9701 14.5034C59.5291 14.9129 58.9621 15.1177 58.2691 15.1177ZM60.2772 16.4879V29.6707H56.2373V16.4879H60.2772Z" fill="black" />
            <path d="M67.9771 16.2989C68.9064 16.2989 69.7175 16.4879 70.4105 16.8659C71.1193 17.2439 71.6626 17.7401 72.0406 18.3543V16.4879H76.0805V29.6471C76.0805 30.8598 75.8364 31.9544 75.3481 32.9309C74.8756 33.9232 74.1433 34.7107 73.151 35.2934C72.1745 35.8762 70.9539 36.1676 69.4891 36.1676C67.5361 36.1676 65.9533 35.7029 64.7405 34.7737C63.5278 33.8602 62.8348 32.6159 62.6615 31.0409H66.6541C66.7801 31.5449 67.0794 31.9387 67.5519 32.2222C68.0244 32.5214 68.6071 32.6711 69.3001 32.6711C70.1349 32.6711 70.7964 32.4269 71.2846 31.9387C71.7886 31.4662 72.0406 30.7023 72.0406 29.6471V27.7807C71.6469 28.3949 71.1035 28.8989 70.4105 29.2927C69.7175 29.6707 68.9064 29.8597 67.9771 29.8597C66.8904 29.8597 65.906 29.5841 65.024 29.0328C64.142 28.4658 63.4411 27.6704 62.9214 26.6467C62.4174 25.6072 62.1654 24.4102 62.1654 23.0557C62.1654 21.7012 62.4174 20.5121 62.9214 19.4883C63.4411 18.4646 64.142 17.6771 65.024 17.1258C65.906 16.5746 66.8904 16.2989 67.9771 16.2989ZM72.0406 23.0793C72.0406 22.0713 71.7571 21.2759 71.1901 20.6932C70.6389 20.1104 69.9616 19.8191 69.1584 19.8191C68.3551 19.8191 67.67 20.1104 67.103 20.6932C66.5518 21.2602 66.2761 22.0477 66.2761 23.0557C66.2761 24.0637 66.5518 24.8669 67.103 25.4654C67.67 26.0482 68.3551 26.3396 69.1584 26.3396C69.9616 26.3396 70.6389 26.0482 71.1901 25.4654C71.7571 24.8827 72.0406 24.0873 72.0406 23.0793Z" fill="black" />
            <path d="M86.8703 16.3462C88.3823 16.3462 89.595 16.8502 90.5085 17.8582C91.422 18.8504 91.8788 20.2207 91.8788 21.9689V29.6707H87.8625V22.5123C87.8625 21.6303 87.6342 20.9452 87.1774 20.4569C86.7207 19.9687 86.1064 19.7246 85.3347 19.7246C84.5629 19.7246 83.9487 19.9687 83.4919 20.4569C83.0352 20.9452 82.8068 21.6303 82.8068 22.5123V29.6707H78.7669V12.1882H82.8068V18.2598C83.2163 17.6771 83.7754 17.2124 84.4842 16.8659C85.1929 16.5194 85.9883 16.3462 86.8703 16.3462Z" fill="black" />
            <path d="M101.797 26.2451V29.6707H99.7419C98.2771 29.6707 97.1352 29.3163 96.3162 28.6076C95.4972 27.8831 95.0877 26.7097 95.0877 25.0874V19.8427H93.4812V16.4879H95.0877V13.2749H99.1276V16.4879H101.774V19.8427H99.1276V25.1347C99.1276 25.5284 99.2221 25.8119 99.4111 25.9852C99.6001 26.1584 99.9151 26.2451 100.356 26.2451H101.797Z" fill="black" />
            <path d="M107.851 18.3543C108.229 17.7401 108.773 17.2439 109.481 16.8659C110.19 16.4879 111.001 16.2989 111.915 16.2989C113.001 16.2989 113.986 16.5746 114.868 17.1258C115.75 17.6771 116.443 18.4646 116.947 19.4883C117.467 20.5121 117.726 21.7012 117.726 23.0557C117.726 24.4102 117.467 25.6072 116.947 26.6467C116.443 27.6704 115.75 28.4658 114.868 29.0328C113.986 29.5841 113.001 29.8597 111.915 29.8597C110.985 29.8597 110.174 29.6786 109.481 29.3163C108.788 28.9383 108.245 28.4422 107.851 27.8279V29.6707H103.811V12.1882H107.851V18.3543ZM113.616 23.0557C113.616 22.0477 113.332 21.2602 112.765 20.6932C112.214 20.1104 111.529 19.8191 110.71 19.8191C109.907 19.8191 109.221 20.1104 108.654 20.6932C108.103 21.2759 107.828 22.0713 107.828 23.0793C107.828 24.0873 108.103 24.8827 108.654 25.4654C109.221 26.0482 109.907 26.3396 110.71 26.3396C111.513 26.3396 112.198 26.0482 112.765 25.4654C113.332 24.8669 113.616 24.0637 113.616 23.0557Z" fill="black" />
            <path d="M125.61 29.8597C124.319 29.8597 123.153 29.5841 122.114 29.0328C121.09 28.4816 120.279 27.6941 119.68 26.6703C119.098 25.6466 118.806 24.4496 118.806 23.0793C118.806 21.7248 119.106 20.5357 119.704 19.5119C120.303 18.4724 121.122 17.6771 122.161 17.1258C123.201 16.5746 124.366 16.2989 125.658 16.2989C126.949 16.2989 128.115 16.5746 129.154 17.1258C130.194 17.6771 131.013 18.4724 131.611 19.5119C132.21 20.5357 132.509 21.7248 132.509 23.0793C132.509 24.4338 132.202 25.6308 131.587 26.6703C130.989 27.6941 130.162 28.4816 129.107 29.0328C128.067 29.5841 126.902 29.8597 125.61 29.8597ZM125.61 26.3632C126.382 26.3632 127.036 26.0797 127.571 25.5127C128.122 24.9457 128.398 24.1346 128.398 23.0793C128.398 22.0241 128.13 21.2129 127.595 20.6459C127.075 20.0789 126.429 19.7954 125.658 19.7954C124.87 19.7954 124.216 20.0789 123.697 20.6459C123.177 21.1972 122.917 22.0083 122.917 23.0793C122.917 24.1346 123.169 24.9457 123.673 25.5127C124.193 26.0797 124.839 26.3632 125.61 26.3632Z" fill="black" />
            <path d="M142.212 29.6707L139.684 26.0088L137.558 29.6707H133.187L137.534 22.9376L133.069 16.4879H137.605L140.133 20.1262L142.259 16.4879H146.63L142.212 23.1266L146.748 29.6707H142.212Z" fill="black" />
        </svg>