        <svg width="160" height="42" viewBox="0 0 160 42" fill="none" xmlns="http://www.w3.org/2000/svg">
            <g clipPath="url(#clip0_603_8369)">
                <path d="M24.2982 3.60654L20.605 2.61694L17.4927 14.2323L14.6829 3.74588L10.9896 4.73548L14.0255 16.0652L6.46384 8.50367L3.76021 11.2073L12.0544 19.5015L1.72532 16.7338L0.735718 20.427L12.0215 23.4511C11.8923 22.8937 11.8239 22.313 11.8239 21.7164C11.8239 17.493 15.2476 14.0694 19.471 14.0694C23.6943 14.0694 27.118 17.493 27.118 21.7164C27.118 22.3092 27.0505 22.8863 26.9229 23.4403L37.1796 26.1886L38.1691 22.4954L26.8384 19.4594L37.1682 16.6915L36.1785 12.9983L24.8484 16.0342L32.41 8.47262L29.7063 5.76899L21.5272 13.9481L24.2982 3.60654Z" fill="black" />
                <path d="M26.9121 23.4834C26.5954 24.822 25.9269 26.0246 25.0097 26.9882L32.4402 34.4188L35.1438 31.7151L26.9121 23.4834Z" fill="black" />
                <path d="M24.9347 27.0658C24.0064 28.014 22.8332 28.7215 21.5177 29.0862L24.2215 39.1769L27.9147 38.1873L24.9347 27.0658Z" fill="black" />
                <path d="M21.3797 29.1231C20.7694 29.28 20.1296 29.3634 19.4703 29.3634C18.764 29.3634 18.08 29.2676 17.4307 29.0883L14.7244 39.1883L18.4176 40.1778L21.3797 29.1231Z" fill="black" />
                <path d="M17.3001 29.0511C16.0046 28.6684 14.8523 27.9518 13.943 27.0009L6.49418 34.4497L9.19781 37.1534L17.3001 29.0511Z" fill="black" />
                <path d="M13.8816 26.9351C12.9878 25.9782 12.3368 24.7917 12.0269 23.4737L1.73676 26.2309L2.72635 29.9241L13.8816 26.9351Z" fill="black" />
            </g>
            <path d="M60.3925 11.2954V24.6042L51.8612 11.2954H48.4487V29.6704H51.8612V16.4667L60.3925 29.6704H63.805V11.2954H60.3925Z" fill="black" />
            <path d="M65.3427 14.7342H68.8602V11.2954H65.3427V14.7342ZM65.3952 29.6704V16.5454H68.8077V29.6704H65.3952Z" fill="black" />
            <path d="M83.4902 23.1079C83.4902 18.5667 80.2615 16.4142 76.849 16.3879C73.4102 16.3617 70.234 18.5667 70.234 23.1079C70.234 27.6492 73.4102 29.8542 76.849 29.8279C79.9727 29.8017 82.1252 28.3579 83.1227 25.9692L80.4715 24.8667C79.6577 26.4942 78.3715 27.0717 76.849 27.0979C75.5365 27.1242 74.0402 26.4942 73.7252 24.1579H83.4115C83.464 23.8167 83.4902 23.4754 83.4902 23.1079ZM76.849 19.0917C78.1615 19.1179 79.5002 19.8267 79.9202 21.7167H73.7777C74.224 19.8004 75.5627 19.0654 76.849 19.0917Z" fill="black" />
            <path d="M91.3767 18.9867V16.3879H89.2242V12.8704L85.8117 13.9204V16.3879H83.6592V18.9867H85.8117V25.7854C85.8117 28.3579 86.0217 29.6704 90.0117 29.6704H90.9305V26.6779H90.0117C89.3817 26.6779 89.2242 26.5729 89.2242 25.7854V18.9867H91.3767Z" fill="black" />
            <path d="M96.4475 26.8092L103.692 19.4067V16.5454H92.825V19.4067H99.86L92.615 26.8092V29.6704H103.771V26.8092H96.4475Z" fill="black" />
            <path d="M104.995 25.9692L108.433 25.4442C108.67 26.7567 110.218 27.2554 111.163 27.2554C112.135 27.2554 113.815 27.0454 113.815 25.4704C113.815 22.3992 105.388 26.2317 105.388 20.3517C105.388 16.5717 109.772 16.3617 111.163 16.3617C112.476 16.3617 116.282 16.5717 117.07 19.6167L113.815 20.2992C113.526 18.9079 112.056 18.6454 111.268 18.6454C110.481 18.6454 108.801 18.8292 108.801 20.3517C108.801 23.3967 117.227 19.5117 117.227 25.4704C117.227 29.4867 112.607 29.8279 111.163 29.8279C109.851 29.8279 105.677 29.4867 104.995 25.9692Z" fill="black" />
            <path d="M121.66 23.1079C121.66 26.3104 123.367 27.2817 125.152 27.2554C126.753 27.2292 127.855 26.5729 128.512 24.7354L131.32 26.1004C130.297 28.7779 127.803 29.8017 125.152 29.8279C121.713 29.8542 118.248 27.6492 118.248 23.1079C118.248 18.5667 121.713 16.3617 125.152 16.3879C127.803 16.4142 130.297 17.4379 131.32 20.1154L128.512 21.4804C127.855 19.6429 126.753 18.9867 125.152 18.9604C123.367 18.9342 121.66 19.9054 121.66 23.1079Z" fill="black" />
            <path d="M140.481 16.3354C138.723 16.3354 137.121 17.2542 136.098 19.2229V11.2954H132.685V29.6704H136.098V25.0242C136.098 19.0129 138.591 18.5142 139.51 18.5142C140.98 18.5142 141.19 20.0367 141.19 22.2679V29.6704H144.603V22.2679C144.603 19.4854 144.156 16.3354 140.481 16.3354Z" fill="black" />
            <path d="M159.01 23.1079C159.01 18.5667 155.781 16.4142 152.369 16.3879C148.93 16.3617 145.754 18.5667 145.754 23.1079C145.754 27.6492 148.93 29.8542 152.369 29.8279C155.493 29.8017 157.645 28.3579 158.643 25.9692L155.991 24.8667C155.178 26.4942 153.891 27.0717 152.369 27.0979C151.056 27.1242 149.56 26.4942 149.245 24.1579H158.931C158.984 23.8167 159.01 23.4754 159.01 23.1079ZM152.369 19.0917C153.681 19.1179 155.02 19.8267 155.44 21.7167H149.298C149.744 19.8004 151.083 19.0654 152.369 19.0917Z" fill="black" />
            <defs>
                <clipPath id="clip0_603_8369">
                    <rect width="38.5" height="38.5" fill="white" transform="translate(0.4375 1.75)" />
                </clipPath>
            </defs>
        </svg>