<svg width="157" height="42" viewBox="0 0 157 42" fill="none" xmlns="http://www.w3.org/2000/svg">
<path d="M32.8125 21C32.8125 29.0081 26.3206 35.5 18.3125 35.5C10.3044 35.5 3.8125 29.0081 3.8125 21C3.8125 12.9919 10.3044 6.5 18.3125 6.5C26.3206 6.5 32.8125 12.9919 32.8125 21Z" stroke="black" stroke-width="6"/>
<path d="M58.7235 17.8615C58.7235 18.7762 58.503 19.6337 58.062 20.434C57.6374 21.2344 56.9595 21.8795 56.0285 22.3695C55.1139 22.8595 53.9542 23.1045 52.5495 23.1045H49.683V29.6705H46.253V12.5695H52.5495C53.8725 12.5695 54.9995 12.7982 55.9305 13.2555C56.8615 13.7129 57.5557 14.3417 58.013 15.142C58.4867 15.9424 58.7235 16.8489 58.7235 17.8615ZM52.4025 20.336C53.3499 20.336 54.0522 20.1237 54.5095 19.699C54.9669 19.258 55.1955 18.6455 55.1955 17.8615C55.1955 16.1955 54.2645 15.3625 52.4025 15.3625H49.683V20.336H52.4025Z" fill="black"/>
<path d="M66.2058 29.891C64.8991 29.891 63.7231 29.6052 62.6778 29.0335C61.6325 28.4455 60.8076 27.6207 60.2033 26.559C59.6153 25.4974 59.3213 24.2724 59.3213 22.884C59.3213 21.4957 59.6235 20.2707 60.2278 19.209C60.8485 18.1474 61.6896 17.3307 62.7513 16.759C63.813 16.171 64.9971 15.877 66.3038 15.877C67.6105 15.877 68.7946 16.171 69.8563 16.759C70.918 17.3307 71.751 18.1474 72.3553 19.209C72.976 20.2707 73.2863 21.4957 73.2863 22.884C73.2863 24.2724 72.9678 25.4974 72.3308 26.559C71.7101 27.6207 70.8608 28.4455 69.7828 29.0335C68.7211 29.6052 67.5288 29.891 66.2058 29.891ZM66.2058 26.902C66.8265 26.902 67.4063 26.755 67.9453 26.461C68.5006 26.1507 68.9416 25.6934 69.2683 25.089C69.595 24.4847 69.7583 23.7497 69.7583 22.884C69.7583 21.5937 69.4153 20.6055 68.7293 19.9195C68.0596 19.2172 67.2348 18.866 66.2548 18.866C65.2748 18.866 64.45 19.2172 63.7803 19.9195C63.127 20.6055 62.8003 21.5937 62.8003 22.884C62.8003 24.1744 63.1188 25.1707 63.7558 25.873C64.4091 26.559 65.2258 26.902 66.2058 26.902Z" fill="black"/>
<path d="M78.2523 11.5405V29.6705H74.8223V11.5405H78.2523Z" fill="black"/>
<path d="M93.6462 16.0975L85.2427 36.0895H81.5922L84.5322 29.3275L79.0932 16.0975H82.9397L86.4432 25.579L89.9957 16.0975H93.6462Z" fill="black"/>
<path d="M111.371 15.9015C113.037 15.9015 114.377 16.416 115.389 17.445C116.418 18.4577 116.933 19.8787 116.933 21.708V29.6705H113.503V22.1735C113.503 21.1119 113.233 20.3034 112.694 19.748C112.155 19.1764 111.42 18.8905 110.489 18.8905C109.558 18.8905 108.815 19.1764 108.26 19.748C107.721 20.3034 107.451 21.1119 107.451 22.1735V29.6705H104.021V22.1735C104.021 21.1119 103.752 20.3034 103.213 19.748C102.674 19.1764 101.939 18.8905 101.008 18.8905C100.06 18.8905 99.309 19.1764 98.7537 19.748C98.2147 20.3034 97.9452 21.1119 97.9452 22.1735V29.6705H94.5152V16.0975H97.9452V17.739C98.3862 17.1674 98.9497 16.7182 99.6357 16.3915C100.338 16.0649 101.106 15.9015 101.939 15.9015C103 15.9015 103.948 16.1302 104.781 16.5875C105.614 17.0285 106.259 17.6655 106.716 18.4985C107.157 17.7145 107.794 17.0857 108.627 16.612C109.477 16.1384 110.391 15.9015 111.371 15.9015Z" fill="black"/>
<path d="M118.326 22.835C118.326 21.463 118.595 20.2462 119.134 19.1845C119.689 18.1229 120.433 17.3062 121.364 16.7345C122.311 16.1629 123.364 15.877 124.524 15.877C125.537 15.877 126.419 16.0812 127.17 16.4895C127.938 16.8979 128.55 17.4124 129.008 18.033V16.0975H132.462V29.6705H129.008V27.686C128.567 28.323 127.954 28.8539 127.17 29.2785C126.402 29.6869 125.512 29.891 124.5 29.891C123.356 29.891 122.311 29.597 121.364 29.009C120.433 28.421 119.689 27.5962 119.134 26.5345C118.595 25.4565 118.326 24.2234 118.326 22.835ZM129.008 22.884C129.008 22.051 128.844 21.3405 128.518 20.7525C128.191 20.1482 127.75 19.6909 127.195 19.3805C126.639 19.0539 126.043 18.8905 125.406 18.8905C124.769 18.8905 124.181 19.0457 123.642 19.356C123.103 19.6664 122.662 20.1237 122.319 20.728C121.992 21.316 121.829 22.0184 121.829 22.835C121.829 23.6517 121.992 24.3704 122.319 24.991C122.662 25.5954 123.103 26.0609 123.642 26.3875C124.197 26.7142 124.785 26.8775 125.406 26.8775C126.043 26.8775 126.639 26.7224 127.195 26.412C127.75 26.0854 128.191 25.628 128.518 25.04C128.844 24.4357 129.008 23.717 129.008 22.884Z" fill="black"/>
<path d="M138.826 18.915V25.481C138.826 25.9384 138.932 26.2732 139.144 26.4855C139.373 26.6815 139.748 26.7795 140.271 26.7795H141.864V29.6705H139.708C136.817 29.6705 135.371 28.2659 135.371 25.4565V18.915H133.754V16.0975H135.371V12.741H138.826V16.0975H141.864V18.915H138.826Z" fill="black"/>
<path d="M150.995 15.9015C152.024 15.9015 152.938 16.1302 153.739 16.5875C154.539 17.0285 155.16 17.69 155.601 18.572C156.058 19.4377 156.287 20.483 156.287 21.708V29.6705H152.857V22.1735C152.857 21.0955 152.587 20.2707 152.048 19.699C151.509 19.111 150.774 18.817 149.843 18.817C148.896 18.817 148.144 19.111 147.589 19.699C147.05 20.2707 146.781 21.0955 146.781 22.1735V29.6705H143.351V11.5405H146.781V17.788C147.222 17.2 147.81 16.7427 148.545 16.416C149.28 16.073 150.096 15.9015 150.995 15.9015Z" fill="black"/>
</svg>
