<svg width="146" height="42" viewBox="0 0 146 42" fill="none" xmlns="http://www.w3.org/2000/svg">
<path d="M37.25 21.2188C37.25 31.0218 29.3031 38.9688 19.5 38.9688C9.69695 38.9688 1.75 31.0218 1.75 21.2188C1.75 11.4157 9.69695 3.46875 19.5 3.46875C29.3031 3.46875 37.25 11.4157 37.25 21.2188Z" stroke="black" stroke-width="3"/>
<path d="M26.4827 28.2015C22.8803 31.804 18.8055 34.1487 15.1889 35.0786C11.5347 36.0183 8.64296 35.4641 6.94885 33.77C5.25474 32.0759 4.70057 29.1842 5.64023 25.5299C6.5702 21.9134 8.91489 17.8386 12.5173 14.2362C16.1197 10.6338 20.1945 8.28907 23.8111 7.35911C27.4653 6.41944 30.357 6.97361 32.0511 8.66772C33.7453 10.3618 34.2994 13.2535 33.3598 16.9078C32.4298 20.5243 30.0851 24.5991 26.4827 28.2015Z" stroke="black" stroke-width="3"/>
<path d="M26.4825 14.2359C30.0849 17.8384 32.4296 21.9131 33.3596 25.5297C34.2993 29.1839 33.7451 32.0757 32.051 33.7698C30.3569 35.4639 27.4652 36.018 23.8109 35.0784C20.1944 34.1484 16.1196 31.8037 12.5171 28.2013C8.91472 24.5989 6.57003 20.5241 5.64007 16.9076C4.7004 13.2533 5.25458 10.3616 6.94868 8.66747C8.64279 6.97336 11.5345 6.41918 15.1888 7.35885C18.8053 8.28882 22.8801 10.6335 26.4825 14.2359Z" stroke="black" stroke-width="3"/>
<path d="M55.2438 29.96C59.365 29.96 62.1475 27.8075 62.1475 24.3687C62.1475 17.0975 52.4875 20.195 52.4875 16.3625C52.4875 15.2862 53.4588 14.5512 55.0075 14.5512C56.7663 14.5512 57.8688 15.4962 58 16.94H61.7538C61.6488 13.4487 58.9713 11.165 55.0075 11.165C51.28 11.165 48.655 13.3175 48.655 16.3625C48.655 23.5812 58.1838 20.825 58.1838 24.4212C58.1838 25.8125 57.0025 26.5475 55.2438 26.5475C53.3013 26.5475 52.0675 25.3662 51.91 23.5025H48.13C48.2875 27.4137 51.07 29.96 55.2438 29.96Z" fill="black"/>
<path d="M63.0402 35.105H66.689V28.5687C67.3977 29.4612 68.684 29.96 70.1802 29.96C73.9865 29.96 76.559 27.2562 76.559 23.135C76.559 19.0137 74.1965 16.31 70.4952 16.31C68.789 16.31 67.4765 16.94 66.689 17.9637V16.52H63.0402V35.105ZM69.734 26.81C67.7652 26.81 66.479 25.34 66.479 23.135C66.479 20.9037 67.7652 19.4337 69.734 19.4337C71.6502 19.4337 72.9627 20.9037 72.9627 23.135C72.9627 25.34 71.6502 26.81 69.734 26.81Z" fill="black"/>
<path d="M77.4418 29.75H81.0906V22.505C81.0906 20.7987 82.2193 19.565 83.8206 19.565C85.3431 19.565 86.3931 20.72 86.3931 22.3212V29.75H90.0418V21.5075C90.0418 18.4625 88.0993 16.31 85.1331 16.31C83.2956 16.31 81.8518 17.0712 81.0906 18.3575V10.7712H77.4418V29.75Z" fill="black"/>
<path d="M100.249 25.2612C99.9602 26.39 98.989 26.9675 97.519 26.9675C95.6815 26.9675 94.5002 25.8125 94.2377 23.9487H103.74C103.766 23.66 103.793 23.2662 103.793 22.7675C103.793 19.7487 101.929 16.31 97.2565 16.31C92.7677 16.31 90.7202 19.7487 90.7202 23.1087C90.7202 26.4425 93.0302 29.96 97.519 29.96C100.774 29.96 103.294 28.1225 103.819 25.2612H100.249ZM97.2565 18.9875C99.0152 18.9875 100.039 20.1687 100.144 21.6387H94.2902C94.6052 19.8012 95.6027 18.9875 97.2565 18.9875Z" fill="black"/>
<path d="M113.362 19.565V16.52H111.479C109.878 16.52 108.881 17.0712 108.172 18.725V16.52H104.497V29.75H108.172V23.3187C108.172 21.0612 108.986 19.565 110.797 19.565H113.362Z" fill="black"/>
<path d="M125.962 16.52H122.287V23.765C122.287 25.445 121.158 26.705 119.557 26.705C118.061 26.705 117.011 25.55 117.011 23.9487V16.52H113.362V24.7625C113.362 27.7812 115.305 29.96 118.271 29.96C120.082 29.96 121.552 29.1725 122.287 27.9125V29.75H125.962V16.52Z" fill="black"/>
<path d="M127.537 29.75H131.186V10.7712H127.537V29.75Z" fill="black"/>
<path d="M141.603 25.2612C141.314 26.39 140.343 26.9675 138.873 26.9675C137.035 26.9675 135.854 25.8125 135.592 23.9487H145.094C145.12 23.66 145.147 23.2662 145.147 22.7675C145.147 19.7487 143.283 16.31 138.61 16.31C134.122 16.31 132.074 19.7487 132.074 23.1087C132.074 26.4425 134.384 29.96 138.873 29.96C142.128 29.96 144.648 28.1225 145.173 25.2612H141.603ZM138.61 18.9875C140.369 18.9875 141.393 20.1687 141.498 21.6387H135.644C135.959 19.8012 136.957 18.9875 138.61 18.9875Z" fill="black"/>
</svg>
