<svg width="20" height="20" viewBox="0 0 20 20" fill="none" xmlns="http://www.w3.org/2000/svg">
<path opacity="0.2" fill-rule="evenodd" clip-rule="evenodd" d="M5.43702 11.3848C6.0705 11.9513 6.81532 12.3958 7.63461 12.6815C8.0183 13.4534 8.55045 14.1386 9.19372 14.6996C8.41218 15.1665 7.49829 15.4348 6.52174 15.4348C6.11024 15.4348 5.70987 15.3872 5.32584 15.2971C5.11517 14.7308 5.00005 14.118 5.00005 13.4783C5.00005 12.7337 5.156 12.0256 5.43702 11.3848ZM4.37379 16.3772C5.44103 18.5244 7.65691 20 10.2174 20C13.0667 20 15.4892 18.1728 16.3772 15.6263C18.5244 14.559 20 12.3432 20 9.78261C20 6.93335 18.1729 4.51084 15.6263 3.62289C14.5591 1.47563 12.3432 0 9.78264 0C6.93337 0 4.51086 1.82718 3.62291 4.37372C1.47564 5.44095 3.35777e-07 7.65685 0 10.2174C-3.7364e-07 13.0667 1.82721 15.4892 4.37379 16.3772ZM3.80478 14.6724C3.73314 14.2853 3.6957 13.8861 3.6957 13.4783C3.6957 12.342 3.9863 11.2735 4.49725 10.3432C3.71944 9.26934 3.2609 7.94909 3.2609 6.52174C3.2609 6.39201 3.26469 6.26317 3.27216 6.13531C2.07291 7.09125 1.30435 8.56457 1.30435 10.2174C1.30435 12.1035 2.3052 13.7559 3.80478 14.6724ZM4.70297 5.32578C4.61289 5.70983 4.56525 6.11022 4.56525 6.52174C4.56525 7.49828 4.83354 8.41217 5.30044 9.1937C5.86143 8.55044 6.54659 8.01829 7.31856 7.63459C7.60423 6.81531 8.04874 6.07048 8.6152 5.437C7.9744 5.15597 7.26628 5.00002 6.52174 5.00002C5.88207 5.00002 5.26928 5.11514 4.70297 5.32578ZM5.32765 3.80474C5.71477 3.73311 6.11388 3.69567 6.52174 3.69567C7.65805 3.69567 8.72648 3.98628 9.65678 4.49723C10.7307 3.71942 12.0509 3.26088 13.4783 3.26088C13.608 3.26088 13.7369 3.26466 13.8647 3.27214C12.9088 2.0729 11.4355 1.30435 9.78264 1.30435C7.89652 1.30435 6.24416 2.30518 5.32765 3.80474ZM9.75795 6.1247C9.47887 6.40852 9.23201 6.72412 9.02331 7.06559C9.41044 6.99396 9.80957 6.95652 10.2174 6.95652C10.3471 6.95652 10.476 6.9603 10.6038 6.96777C10.3549 6.65557 10.071 6.37256 9.75795 6.1247ZM12.3654 7.3185C11.9817 6.54655 11.4496 5.8614 10.8063 5.30042C11.5878 4.83352 12.5017 4.56522 13.4783 4.56522C13.8898 4.56522 14.2902 4.61287 14.6743 4.70294C14.8849 5.26926 15 5.88206 15 6.52174C15 7.26627 14.8441 7.97438 14.5631 8.61518C13.9296 8.0487 13.1847 7.60418 12.3654 7.3185ZM11.4133 8.39857C11.0293 8.3085 10.6289 8.26086 10.2174 8.26086C9.57774 8.26086 8.96494 8.37599 8.39861 8.58665C8.30854 8.9707 8.26089 9.37109 8.26089 9.78261C8.26089 10.4223 8.37602 11.0351 8.58667 11.6014C8.97072 11.6915 9.37112 11.7391 9.78264 11.7391C10.4223 11.7391 11.0351 11.624 11.6014 11.4134C11.6915 11.0293 11.7391 10.6289 11.7391 10.2174C11.7391 9.57771 11.624 8.9649 11.4133 8.39857ZM13.0322 10.6038C13.0397 10.476 13.0435 10.3471 13.0435 10.2174C13.0435 9.80953 13.006 9.41039 12.9344 9.02324C13.2759 9.23195 13.5915 9.47883 13.8754 9.75794C13.6275 10.071 13.3444 10.355 13.0322 10.6038ZM10.9767 12.9344C10.5896 13.006 10.1905 13.0435 9.78264 13.0435C9.65291 13.0435 9.52407 13.0397 9.39621 13.0322C9.64508 13.3444 9.92902 13.6275 10.2421 13.8753C10.5212 13.5915 10.768 13.2759 10.9767 12.9344ZM11.3848 14.563C11.9513 13.9295 12.3958 13.1847 12.6815 12.3654C13.4535 11.9817 14.1386 11.4496 14.6996 10.8063C15.1665 11.5878 15.4348 12.5017 15.4348 13.4783C15.4348 13.8898 15.3872 14.2902 15.2971 14.6742C14.7308 14.8849 14.118 15 13.4783 15C12.7337 15 12.0256 14.844 11.3848 14.563ZM10.3432 15.5028C11.2735 16.0137 12.342 16.3044 13.4783 16.3044C13.8862 16.3044 14.2853 16.2669 14.6724 16.1953C13.7559 17.6948 12.1035 18.6956 10.2174 18.6956C8.56463 18.6956 7.09132 17.9271 6.13539 16.7279C6.26322 16.7354 6.39204 16.7391 6.52174 16.7391C7.9491 16.7391 9.26935 16.2806 10.3432 15.5028ZM6.12472 10.2421C6.40854 10.5211 6.72415 10.768 7.06562 10.9767C6.99399 10.5896 6.95655 10.1905 6.95655 9.78261C6.95655 9.65289 6.96034 9.52405 6.96781 9.39621C6.6556 9.64508 6.37258 9.92901 6.12472 10.2421ZM18.6957 9.78261C18.6957 7.89651 17.6949 6.24415 16.1953 5.32764C16.2669 5.71477 16.3044 6.11388 16.3044 6.52174C16.3044 7.65804 16.0138 8.72647 15.5028 9.65676C16.2806 10.7307 16.7392 12.0509 16.7392 13.4783C16.7392 13.608 16.7354 13.7368 16.7279 13.8647C17.9271 12.9087 18.6957 11.4354 18.6957 9.78261Z" fill="black"/>
</svg>
